<svg width="64" height="64" viewBox="0 0 64 64" fill="none" xmlns="http://www.w3.org/2000/svg">
<rect width="64" height="64" rx="32" fill="#9061F4"/>
<path d="M39.8913 35.0935C39.546 35.4282 39.3873 35.9122 39.466 36.3868L40.6513 42.9468C40.7513 43.5028 40.5166 44.0655 40.0513 44.3868C39.5953 44.7202 38.9886 44.7602 38.4913 44.4935L32.586 41.4135C32.3806 41.3042 32.1526 41.2455 31.9193 41.2388H31.558C31.4326 41.2575 31.31 41.2975 31.198 41.3588L25.2913 44.4535C24.9993 44.6002 24.6686 44.6522 24.3446 44.6002C23.5553 44.4508 23.0286 43.6988 23.158 42.9055L24.3446 36.3455C24.4233 35.8668 24.2646 35.3802 23.9193 35.0402L19.1046 30.3735C18.702 29.9828 18.562 29.3962 18.746 28.8668C18.9246 28.3388 19.3806 27.9535 19.9313 27.8668L26.558 26.9055C27.062 26.8535 27.5046 26.5468 27.7313 26.0935L30.6513 20.1068C30.7206 19.9735 30.81 19.8508 30.918 19.7468L31.038 19.6535C31.1006 19.5842 31.1726 19.5268 31.2526 19.4802L31.398 19.4268L31.6246 19.3335H32.186C32.6873 19.3855 33.1286 19.6855 33.3593 20.1335L36.318 26.0935C36.5313 26.5295 36.946 26.8322 37.4246 26.9055L44.0513 27.8668C44.6113 27.9468 45.0793 28.3335 45.2646 28.8668C45.4393 29.4015 45.2886 29.9882 44.878 30.3735L39.8913 35.0935Z" fill="white"/>
</svg>
