<svg width="64" height="64" viewBox="0 0 64 64" fill="none" xmlns="http://www.w3.org/2000/svg">
<rect width="64" height="64" rx="32" fill="#F4617B"/>
<path fill-rule="evenodd" clip-rule="evenodd" d="M43.1988 28.1947L44.1591 29.1547C44.9194 29.9013 45.3329 30.9147 45.3329 31.9813C45.3462 33.048 44.9327 34.0627 44.1858 34.8213C44.1769 34.8311 44.168 34.8397 44.1591 34.8483C44.1547 34.8526 44.1502 34.8569 44.1458 34.8613L43.1988 35.808C42.8253 36.1813 42.6119 36.688 42.6119 37.2227V38.5947C42.6119 40.808 40.8112 42.6093 38.5971 42.6093H37.2233C36.6897 42.6093 36.1829 42.8213 35.8094 43.1947L34.8491 44.1547C34.0621 44.9427 33.0351 45.328 32.008 45.328C30.981 45.328 29.9539 44.9427 29.167 44.1693L28.1933 43.1947C27.8198 42.8213 27.313 42.6093 26.7795 42.6093H25.4056C23.1915 42.6093 21.3908 40.808 21.3908 38.5947V37.2227C21.3908 36.688 21.1774 36.1813 20.804 35.7947L19.8436 34.848C18.2831 33.2893 18.2697 30.7413 19.8303 29.1693L20.804 28.1947C21.1774 27.8213 21.3908 27.3147 21.3908 26.768V25.408C21.3908 23.1947 23.1915 21.396 25.4056 21.396H26.7795C27.313 21.396 27.8198 21.1813 28.1933 20.808L29.1537 19.848C30.7142 18.276 33.2618 18.276 34.8357 19.836L35.8094 20.808C36.1829 21.1813 36.6897 21.396 37.2233 21.396H38.5971C40.8112 21.396 42.6119 23.1947 42.6119 25.408V26.7827C42.6119 27.3147 42.8253 27.8213 43.1988 28.1947ZM28.5668 36.5947C28.8869 36.5947 29.1803 36.4747 29.3937 36.248L36.2496 29.396C36.7031 28.9427 36.7031 28.1947 36.2496 27.7413C35.7961 27.2893 35.0625 27.2893 34.609 27.7413L27.7532 34.5947C27.2997 35.048 27.2997 35.7947 27.7532 36.248C27.9666 36.4747 28.26 36.5947 28.5668 36.5947ZM34.2622 35.4213C34.2622 36.0747 34.7824 36.5947 35.4359 36.5947C36.0762 36.5947 36.5964 36.0747 36.5964 35.4213C36.5964 34.7827 36.0762 34.2613 35.4359 34.2613C34.7824 34.2613 34.2622 34.7827 34.2622 35.4213ZM28.5801 27.408C29.2204 27.408 29.7405 27.928 29.7405 28.568C29.7405 29.2227 29.2204 29.7413 28.5801 29.7413C27.9399 29.7413 27.4064 29.2227 27.4064 28.568C27.4064 27.928 27.9399 27.408 28.5801 27.408Z" fill="white"/>
</svg>
