<?xml version="1.0" encoding="utf-8"?>
<!-- Generator: Adobe Illustrator 23.0.1, SVG Export Plug-In . SVG Version: 6.00 Build 0)  -->
<svg version="1.1" id="at_x5F_logo" xmlns="http://www.w3.org/2000/svg" xmlns:xlink="http://www.w3.org/1999/xlink" x="0px"
	 y="0px" viewBox="0 0 674 361.1" style="enable-background:new 0 0 674 361.1;" xml:space="preserve">
<style type="text/css">
	.st0{fill:url(#SVGID_1_);}
	.st1{fill:#FEFEFE;}
</style>
<linearGradient id="SVGID_1_" gradientUnits="userSpaceOnUse" x1="107" y1="55.7714" x2="107" y2="-158.2286" gradientTransform="matrix(1 0 0 -1 0 129.3714)">
	<stop  offset="0" style="stop-color:#A71D74"/>
	<stop  offset="1" style="stop-color:#FD251D"/>
</linearGradient>
<path class="st0" d="M0,73.6v214h214v-214C214,73.6,0,73.6,0,73.6z M203.3,276.9H10.7V84.2h153.5c0,4.3,0,13.2,0,13.2h-24.1v19.2
	h-20.6c-1.5-3.9-5.3-6.6-9.7-6.6c-5.8,0-10.4,4.6-10.4,10.4s4.6,10.4,10.4,10.4c4.4,0,8.1-2.6,9.7-6.6h20.6v29.1h-63v108.4h15.6
	c1.5,3.9,5.3,6.6,9.7,6.6c5.8,0,10.4-4.6,10.4-10.4c0-5.8-4.6-10.4-10.4-10.4c-4.4,0-8.1,2.6-9.7,6.6h-7.9v-32.7H117
	c1.5,3.9,5.3,6.6,9.7,6.6c5.8,0,10.4-4.6,10.4-10.4c0-5.8-4.6-10.4-10.4-10.4c-4.4,0-8.1,2.6-9.7,6.6H84.8v-53.6h67
	c1.5,3.9,5.3,6.6,9.6,6.6c5.8,0,10.4-4.6,10.4-10.4c0-5.8-4.6-10.4-10.4-10.4c-4.4,0-8.1,2.6-9.6,6.6h-4.1v-48.1h24.1
	c0,0,0-12,0-20.2h31.5v157.9H189v-44.8c3.9-1.5,6.6-5.2,6.6-9.6c0-5.8-4.6-10.4-10.4-10.4c-5.8,0-10.4,4.6-10.4,10.4
	c0,4.4,2.6,8.1,6.6,9.6v44.8h-21.9V184h-46c-1.5-3.9-5.3-6.6-9.6-6.6c-5.8,0-10.4,4.6-10.4,10.4c0,5.8,4.6,10.4,10.4,10.4
	c4.4,0,8.1-2.6,9.6-6.6h38.6v58.2h51.2L203.3,276.9L203.3,276.9z M113.1,120.2c-0.1,1.5-1.3,2.8-2.8,2.8c-1.6,0-2.8-1.3-2.8-2.8
	s1.3-2.8,2.8-2.8C111.8,117.4,113.1,118.8,113.1,120.2z M99.9,257.9c0-1.7,1.3-2.8,2.8-2.8s2.8,1.3,2.8,2.8s-1.3,2.8-2.8,2.8
	C101.2,260.7,99.9,259.3,99.9,257.9z M123.9,217.7c-0.1-1.5,1.3-2.8,2.8-2.8c1.6,0,2.8,1.3,2.8,2.8s-1.3,2.8-2.8,2.8
	C125.2,220.6,123.9,219.2,123.9,217.7z M158.8,156.8c0.1-1.7,1.3-2.8,2.8-2.8c1.6,0,2.8,1.3,2.8,2.8s-1.3,2.8-2.8,2.8
	C160,159.7,158.8,158.2,158.8,156.8z M188.1,187.5c0,1.7-1.3,2.8-2.8,2.8s-2.8-1.3-2.8-2.8c0-1.6,1.3-2.8,2.8-2.8
	C186.9,184.6,188.1,186,188.1,187.5z M106.8,187.5c0,1.7-1.3,2.8-2.8,2.8c-1.6,0-2.8-1.3-2.8-2.8c0-1.6,1.3-2.8,2.8-2.8
	C105.5,184.6,106.8,186,106.8,187.5z"/>
<g>
	<path class="st1" d="M317.8,177.9h-19.6l-7.8-20.3h-35.7l-7.4,20.3h-19.1L263,88.7h19L317.8,177.9z M284.6,142.6l-12.3-33.1
		l-12.1,33.1H284.6z"/>
	<path class="st1" d="M322,113.3h16v9.5c2.1-3.2,4.9-5.9,8.4-7.9s7.4-3,11.8-3c7.5,0,13.9,2.9,19.1,8.8s7.9,14.1,7.9,24.6
		c0,10.8-2.6,19.2-7.9,25.2s-11.7,9-19.2,9c-3.6,0-6.8-0.7-9.7-2.1c-2.9-1.4-6-3.9-9.2-7.3v32.6H322V113.3z M338.9,144.5
		c0,7.3,1.4,12.6,4.3,16.1s6.4,5.2,10.5,5.2c4,0,7.3-1.6,9.9-4.8s4-8.4,4-15.7c0-6.8-1.4-11.8-4.1-15.1s-6.1-4.9-10.1-4.9
		c-4.2,0-7.7,1.6-10.4,4.8C340.3,133.4,338.9,138.2,338.9,144.5z"/>
	<path class="st1" d="M393.9,177.9V88.7H411V178h-17.1V177.9z"/>
	<path class="st1" d="M444,177.9v-74.2h-26.5v-15h70.9v15.1H462V178h-18V177.9z"/>
	<path class="st1" d="M523.4,157.3l17,2.9c-2.2,6.3-5.7,11-10.4,14.3s-10.6,4.9-17.7,4.9c-11.2,0-19.6-3.7-25-11
		c-4.3-5.9-6.4-13.3-6.4-22.3c0-10.7,2.8-19.1,8.4-25.2s12.7-9.1,21.2-9.1c9.6,0,17.2,3.2,22.8,9.5c5.6,6.4,8.2,16.1,8,29.2h-42.9
		c0.1,5.1,1.5,9,4.1,11.8s5.9,4.2,9.9,4.2c2.7,0,4.9-0.7,6.8-2.2S522.5,160.6,523.4,157.3z M524.4,140.1c-0.1-5-1.4-8.7-3.8-11.3
		c-2.4-2.6-5.4-3.9-8.9-3.9c-3.7,0-6.8,1.4-9.3,4.1c-2.4,2.7-3.6,6.4-3.6,11.1H524.4z"/>
	<path class="st1" d="M607,132.4l-16.9,3c-0.6-3.4-1.9-5.9-3.9-7.6c-2-1.7-4.6-2.6-7.8-2.6c-4.3,0-7.7,1.5-10.2,4.4
		s-3.8,7.9-3.8,14.8c0,7.7,1.3,13.1,3.9,16.3c2.6,3.2,6,4.7,10.4,4.7c3.2,0,5.9-0.9,8-2.8c2.1-1.8,3.5-5,4.4-9.5l16.8,2.9
		c-1.7,7.7-5.1,13.5-10,17.5c-5,3.9-11.6,5.9-19.9,5.9c-9.5,0-17-3-22.6-9s-8.4-14.2-8.4-24.8c0-10.7,2.8-19,8.5-24.9
		c5.6-5.9,13.3-8.9,22.9-8.9c7.9,0,14.1,1.7,18.8,5.1C601.6,120.3,604.9,125.4,607,132.4z"/>
	<path class="st1" d="M632.2,88.7v32.8c5.5-6.5,12.1-9.7,19.8-9.7c3.9,0,7.5,0.7,10.7,2.2s5.6,3.3,7.2,5.6c1.6,2.3,2.7,4.8,3.3,7.5
		c0.6,2.8,0.9,7,0.9,12.8v37.9H657v-34.2c0-6.8-0.3-11.1-1-12.9c-0.7-1.8-1.8-3.3-3.4-4.4c-1.6-1.1-3.7-1.6-6.2-1.6
		c-2.8,0-5.4,0.7-7.6,2.1c-2.2,1.4-3.9,3.5-4.9,6.2c-1,2.8-1.6,6.9-1.6,12.3v32.4h-17.1v-89H632.2z"/>
</g>
<g>
	<path id="yitp" class="st1" d="M622.6,232.3c-1.1-1.1-2.5-1.9-4.2-1.9c-1.9,0-3.1,0.7-4.4,2c-1.1,1.2-1.8,3-1.8,5.1h0.1
		c0-2.1,0.7-3.8,1.8-5c1.2-1.3,2.5-2,4.4-2c1.7,0,3,0.7,4,1.9c0.8,0.8,1.3,1.8,1.7,3C624.1,234.2,623.6,233.1,622.6,232.3z
		 M622.6,232.3c-1.1-1.1-2.5-1.9-4.2-1.9c-1.9,0-3.1,0.7-4.4,2c-1.1,1.2-1.8,3-1.8,5.1h0.1c0-2.1,0.7-3.8,1.8-5c1.2-1.3,2.5-2,4.4-2
		c1.7,0,3,0.7,4,1.9c0.8,0.8,1.3,1.8,1.7,3C624.1,234.2,623.6,233.1,622.6,232.3z M511.8,240.7v1.7c0,1.9-0.1,3.2-0.2,3.9
		c-0.2,0.9-1.1,2-2,2.7c-1.2,0.8-2.3,1.3-3.6,1.3c1.3-0.1,2.5-0.6,3.8-1.3c0.9-0.7,1.8-1.8,2-2.7c0.1-0.7,0.2-2,0.2-3.9v-1.8
		C512,240.6,512,240.6,511.8,240.7z M511.8,240.7v1.7c0,1.9-0.1,3.2-0.2,3.9c-0.2,0.9-1.1,2-2,2.7c-1.2,0.8-2.3,1.3-3.6,1.3
		c1.3-0.1,2.5-0.6,3.8-1.3c0.9-0.7,1.8-1.8,2-2.7c0.1-0.7,0.2-2,0.2-3.9v-1.8C512,240.6,512,240.6,511.8,240.7z M475.5,220.9
		c-0.9-0.1-3-0.2-6.1-0.2h-4.2v0.1h4.2c3.1,0,5.1,0.1,6.1,0.2c1.1,0.1,1.9,0.6,2.7,1.2C477.4,221.6,476.5,221,475.5,220.9z M479,223
		c0.7,0.8,1.1,1.9,1.2,3.1C480,225.1,479.8,224,479,223z M475.5,220.9c-0.9-0.1-3-0.2-6.1-0.2h-4.2v0.1h4.2c3.1,0,5.1,0.1,6.1,0.2
		c1.1,0.1,1.9,0.6,2.7,1.2C477.4,221.6,476.5,221,475.5,220.9z M479,223c0.7,0.8,1.1,1.9,1.2,3.1C480,225.1,479.8,224,479,223z
		 M300.5,233.4c-0.4-0.4-0.7-0.7-1.1-0.9c0.4,0.4,0.7,0.8,1.1,1.3c1.3,1.2,2,3.2,2.1,5.6C302.7,236.8,302,234.9,300.5,233.4z
		 M295.3,231c-2.1,0-3.8,0.8-5.3,2.5c-1.3,1.4-2,3.4-2.1,5.9c0.1-2.4,0.8-4.3,2.1-5.8C291.7,231.8,293.1,231.1,295.3,231
		c1.1,0.1,2.1,0.2,3.1,0.7C297.4,231.2,296.4,231,295.3,231z M300.5,233.4c-0.4-0.4-0.7-0.7-1.1-0.9c0.4,0.4,0.7,0.8,1.1,1.3
		c1.3,1.2,2,3.2,2.1,5.6C302.7,236.8,302,234.9,300.5,233.4z M295.3,231c-2.1,0-3.8,0.8-5.3,2.5c-1.3,1.4-2,3.4-2.1,5.9
		c0.1-2.4,0.8-4.3,2.1-5.8C291.7,231.8,293.1,231.1,295.3,231c1.1,0.1,2.1,0.2,3.1,0.7C297.4,231.2,296.4,231,295.3,231z
		 M300.5,233.4c-0.4-0.4-0.7-0.7-1.1-0.9c0.4,0.4,0.7,0.8,1.1,1.3c1.3,1.2,2,3.2,2.1,5.6C302.7,236.8,302,234.9,300.5,233.4z
		 M295.3,231c-2.1,0-3.8,0.8-5.3,2.5c-1.3,1.4-2,3.4-2.1,5.9c0.1-2.4,0.8-4.3,2.1-5.8C291.7,231.8,293.1,231.1,295.3,231
		c1.1,0.1,2.1,0.2,3.1,0.7C297.4,231.2,296.4,231,295.3,231z M300.5,233.4c-0.4-0.4-0.7-0.7-1.1-0.9c0.4,0.4,0.7,0.8,1.1,1.3
		c1.3,1.2,2,3.2,2.1,5.6C302.7,236.8,302,234.9,300.5,233.4z M295.3,231c-2.1,0-3.8,0.8-5.3,2.5c-1.3,1.4-2,3.4-2.1,5.9
		c0.1-2.4,0.8-4.3,2.1-5.8C291.7,231.8,293.1,231.1,295.3,231c1.1,0.1,2.1,0.2,3.1,0.7C297.4,231.2,296.4,231,295.3,231z
		 M300.5,233.4c-0.4-0.4-0.7-0.7-1.1-0.9c0.4,0.4,0.7,0.8,1.1,1.3c1.3,1.2,2,3.2,2.1,5.6C302.7,236.8,302,234.9,300.5,233.4z
		 M295.3,231c-2.1,0-3.8,0.8-5.3,2.5c-1.3,1.4-2,3.4-2.1,5.9c0.1-2.4,0.8-4.3,2.1-5.8C291.7,231.8,293.1,231.1,295.3,231
		c1.1,0.1,2.1,0.2,3.1,0.7C297.4,231.2,296.4,231,295.3,231z M300.5,233.4c-0.4-0.4-0.7-0.7-1.1-0.9c0.4,0.4,0.7,0.8,1.1,1.3
		c1.3,1.2,2,3.2,2.1,5.6C302.7,236.8,302,234.9,300.5,233.4z M295.3,231c-2.1,0-3.8,0.8-5.3,2.5c-1.3,1.4-2,3.4-2.1,5.9
		c0.1-2.4,0.8-4.3,2.1-5.8C291.7,231.8,293.1,231.1,295.3,231c1.1,0.1,2.1,0.2,3.1,0.7C297.4,231.2,296.4,231,295.3,231z
		 M300.5,233.4c-0.4-0.4-0.7-0.7-1.1-0.9c0.4,0.4,0.7,0.8,1.1,1.3c1.3,1.2,2,3.2,2.1,5.6C302.7,236.8,302,234.9,300.5,233.4z
		 M295.3,231c-2.1,0-3.8,0.8-5.3,2.5c-1.3,1.4-2,3.4-2.1,5.9c0.1-2.4,0.8-4.3,2.1-5.8C291.7,231.8,293.1,231.1,295.3,231
		c1.1,0.1,2.1,0.2,3.1,0.7C297.4,231.2,296.4,231,295.3,231z M300.5,233.4c-0.4-0.4-0.7-0.7-1.1-0.9c0.4,0.4,0.7,0.8,1.1,1.3
		c1.3,1.2,2,3.2,2.1,5.6C302.7,236.8,302,234.9,300.5,233.4z M295.3,231c-2.1,0-3.8,0.8-5.3,2.5c-1.3,1.4-2,3.4-2.1,5.9
		c0.1-2.4,0.8-4.3,2.1-5.8C291.7,231.8,293.1,231.1,295.3,231c1.1,0.1,2.1,0.2,3.1,0.7C297.4,231.2,296.4,231,295.3,231z
		 M300.5,233.4c-0.4-0.4-0.7-0.7-1.1-0.9c0.4,0.4,0.7,0.8,1.1,1.3c1.3,1.2,2,3.2,2.1,5.6C302.7,236.8,302,234.9,300.5,233.4z
		 M295.3,231c-2.1,0-3.8,0.8-5.3,2.5c-1.3,1.4-2,3.4-2.1,5.9c0.1-2.4,0.8-4.3,2.1-5.8C291.7,231.8,293.1,231.1,295.3,231
		c1.1,0.1,2.1,0.2,3.1,0.7C297.4,231.2,296.4,231,295.3,231z M475.5,220.9c-0.9-0.1-3-0.2-6.1-0.2h-4.2v0.1h4.2
		c3.1,0,5.1,0.1,6.1,0.2c1.1,0.1,1.9,0.6,2.7,1.2C477.4,221.6,476.5,221,475.5,220.9z M479,223c0.7,0.8,1.1,1.9,1.2,3.1
		C480,225.1,479.8,224,479,223z M511.8,240.7v1.7c0,1.9-0.1,3.2-0.2,3.9c-0.2,0.9-1.1,2-2,2.7c-1.2,0.8-2.3,1.3-3.6,1.3
		c1.3-0.1,2.5-0.6,3.8-1.3c0.9-0.7,1.8-1.8,2-2.7c0.1-0.7,0.2-2,0.2-3.9v-1.8C512,240.6,512,240.6,511.8,240.7z M511.8,240.7v1.7
		c0,1.9-0.1,3.2-0.2,3.9c-0.2,0.9-1.1,2-2,2.7c-1.2,0.8-2.3,1.3-3.6,1.3c1.3-0.1,2.5-0.6,3.8-1.3c0.9-0.7,1.8-1.8,2-2.7
		c0.1-0.7,0.2-2,0.2-3.9v-1.8C512,240.6,512,240.6,511.8,240.7z M475.5,220.9c-0.9-0.1-3-0.2-6.1-0.2h-4.2v0.1h4.2
		c3.1,0,5.1,0.1,6.1,0.2c1.1,0.1,1.9,0.6,2.7,1.2C477.4,221.6,476.5,221,475.5,220.9z M479,223c0.7,0.8,1.1,1.9,1.2,3.1
		C480,225.1,479.8,224,479,223z M300.5,233.4c-0.4-0.4-0.7-0.7-1.1-0.9c0.4,0.4,0.7,0.8,1.1,1.3c1.3,1.2,2,3.2,2.1,5.6
		C302.7,236.8,302,234.9,300.5,233.4z M295.3,231c-2.1,0-3.8,0.8-5.3,2.5c-1.3,1.4-2,3.4-2.1,5.9c0.1-2.4,0.8-4.3,2.1-5.8
		C291.7,231.8,293.1,231.1,295.3,231c1.1,0.1,2.1,0.2,3.1,0.7C297.4,231.2,296.4,231,295.3,231z M300.5,233.4
		c-0.4-0.4-0.7-0.7-1.1-0.9c0.4,0.4,0.7,0.8,1.1,1.3c1.3,1.2,2,3.2,2.1,5.6C302.7,236.8,302,234.9,300.5,233.4z M295.3,231
		c-2.1,0-3.8,0.8-5.3,2.5c-1.3,1.4-2,3.4-2.1,5.9c0.1-2.4,0.8-4.3,2.1-5.8C291.7,231.8,293.1,231.1,295.3,231
		c1.1,0.1,2.1,0.2,3.1,0.7C297.4,231.2,296.4,231,295.3,231z M475.5,220.9c-0.9-0.1-3-0.2-6.1-0.2h-4.2v0.1h4.2
		c3.1,0,5.1,0.1,6.1,0.2c1.1,0.1,1.9,0.6,2.7,1.2C477.4,221.6,476.5,221,475.5,220.9z M479,223c0.7,0.8,1.1,1.9,1.2,3.1
		C480,225.1,479.8,224,479,223z M511.8,240.7v1.7c0,1.9-0.1,3.2-0.2,3.9c-0.2,0.9-1.1,2-2,2.7c-1.2,0.8-2.3,1.3-3.6,1.3
		c1.3-0.1,2.5-0.6,3.8-1.3c0.9-0.7,1.8-1.8,2-2.7c0.1-0.7,0.2-2,0.2-3.9v-1.8C512,240.6,512,240.6,511.8,240.7z M511.8,240.7v1.7
		c0,1.9-0.1,3.2-0.2,3.9c-0.2,0.9-1.1,2-2,2.7c-1.2,0.8-2.3,1.3-3.6,1.3c1.3-0.1,2.5-0.6,3.8-1.3c0.9-0.7,1.8-1.8,2-2.7
		c0.1-0.7,0.2-2,0.2-3.9v-1.8C512,240.6,512,240.6,511.8,240.7z M475.5,220.9c-0.9-0.1-3-0.2-6.1-0.2h-4.2v0.1h4.2
		c3.1,0,5.1,0.1,6.1,0.2c1.1,0.1,1.9,0.6,2.7,1.2C477.4,221.6,476.5,221,475.5,220.9z M479,223c0.7,0.8,1.1,1.9,1.2,3.1
		C480,225.1,479.8,224,479,223z M300.5,233.4c-0.4-0.4-0.7-0.7-1.1-0.9c0.4,0.4,0.7,0.8,1.1,1.3c1.3,1.2,2,3.2,2.1,5.6
		C302.7,236.8,302,234.9,300.5,233.4z M295.3,231c-2.1,0-3.8,0.8-5.3,2.5c-1.3,1.4-2,3.4-2.1,5.9c0.1-2.4,0.8-4.3,2.1-5.8
		C291.7,231.8,293.1,231.1,295.3,231c1.1,0.1,2.1,0.2,3.1,0.7C297.4,231.2,296.4,231,295.3,231z M300.5,233.4
		c-0.4-0.4-0.7-0.7-1.1-0.9c0.4,0.4,0.7,0.8,1.1,1.3c1.3,1.2,2,3.2,2.1,5.6C302.7,236.8,302,234.9,300.5,233.4z M295.3,231
		c-2.1,0-3.8,0.8-5.3,2.5c-1.3,1.4-2,3.4-2.1,5.9c0.1-2.4,0.8-4.3,2.1-5.8C291.7,231.8,293.1,231.1,295.3,231
		c1.1,0.1,2.1,0.2,3.1,0.7C297.4,231.2,296.4,231,295.3,231z M475.5,220.9c-0.9-0.1-3-0.2-6.1-0.2h-4.2v0.1h4.2
		c3.1,0,5.1,0.1,6.1,0.2c1.1,0.1,1.9,0.6,2.7,1.2C477.4,221.6,476.5,221,475.5,220.9z M479,223c0.7,0.8,1.1,1.9,1.2,3.1
		C480,225.1,479.8,224,479,223z M511.8,240.7v1.7c0,1.9-0.1,3.2-0.2,3.9c-0.2,0.9-1.1,2-2,2.7c-1.2,0.8-2.3,1.3-3.6,1.3
		c1.3-0.1,2.5-0.6,3.8-1.3c0.9-0.7,1.8-1.8,2-2.7c0.1-0.7,0.2-2,0.2-3.9v-1.8C512,240.6,512,240.6,511.8,240.7z M622.6,232.3
		c-1.1-1.1-2.5-1.9-4.2-1.9c-1.9,0-3.1,0.7-4.4,2c-1.1,1.2-1.8,3-1.8,5.1h0.1c0-2.1,0.7-3.8,1.8-5c1.2-1.3,2.5-2,4.4-2
		c1.7,0,3,0.7,4,1.9c0.8,0.8,1.3,1.8,1.7,3C624.1,234.2,623.6,233.1,622.6,232.3z M622.6,232.3c-1.1-1.1-2.5-1.9-4.2-1.9
		c-1.9,0-3.1,0.7-4.4,2c-1.1,1.2-1.8,3-1.8,5.1h0.1c0-2.1,0.7-3.8,1.8-5c1.2-1.3,2.5-2,4.4-2c1.7,0,3,0.7,4,1.9
		c0.8,0.8,1.3,1.8,1.7,3C624.1,234.2,623.6,233.1,622.6,232.3z M511.8,240.7v1.7c0,1.9-0.1,3.2-0.2,3.9c-0.2,0.9-1.1,2-2,2.7
		c-1.2,0.8-2.3,1.3-3.6,1.3c1.3-0.1,2.5-0.6,3.8-1.3c0.9-0.7,1.8-1.8,2-2.7c0.1-0.7,0.2-2,0.2-3.9v-1.8
		C512,240.6,512,240.6,511.8,240.7z M475.5,220.9c-0.9-0.1-3-0.2-6.1-0.2h-4.2v0.1h4.2c3.1,0,5.1,0.1,6.1,0.2
		c1.1,0.1,1.9,0.6,2.7,1.2C477.4,221.6,476.5,221,475.5,220.9z M479,223c0.7,0.8,1.1,1.9,1.2,3.1C480,225.1,479.8,224,479,223z
		 M300.5,233.4c-0.4-0.4-0.7-0.7-1.1-0.9c0.4,0.4,0.7,0.8,1.1,1.3c1.3,1.2,2,3.2,2.1,5.6C302.7,236.8,302,234.9,300.5,233.4z
		 M295.3,231c-2.1,0-3.8,0.8-5.3,2.5c-1.3,1.4-2,3.4-2.1,5.9c0.1-2.4,0.8-4.3,2.1-5.8C291.7,231.8,293.1,231.1,295.3,231
		c1.1,0.1,2.1,0.2,3.1,0.7C297.4,231.2,296.4,231,295.3,231z M300.5,233.4c-0.4-0.4-0.7-0.7-1.1-0.9c0.4,0.4,0.7,0.8,1.1,1.3
		c1.3,1.2,2,3.2,2.1,5.6C302.7,236.8,302,234.9,300.5,233.4z M300.5,247.1c-1.7,1.8-3.1,2.5-5.3,2.5c-2.1,0-3.8-0.8-5.3-2.5
		c-1.3-1.3-2-3.3-2.1-5.8c0.1,2.5,0.8,4.5,2.1,5.9c1.7,1.7,3.1,2.5,5.3,2.5C297.3,249.7,299,248.9,300.5,247.1
		c1.3-1.3,2-3.3,2.1-5.8C302.7,243.8,302,245.7,300.5,247.1z M295.3,231c-2.1,0-3.8,0.8-5.3,2.5c-1.3,1.4-2,3.4-2.1,5.9
		c0.1-2.4,0.8-4.3,2.1-5.8C291.7,231.8,293.1,231.1,295.3,231c1.1,0.1,2.1,0.2,3.1,0.7C297.4,231.2,296.4,231,295.3,231z
		 M475.5,220.9c-0.9-0.1-3-0.2-6.1-0.2h-4.2v0.1h4.2c3.1,0,5.1,0.1,6.1,0.2c1.1,0.1,1.9,0.6,2.7,1.2
		C477.4,221.6,476.5,221,475.5,220.9z M478.9,222.9l-0.1-0.1C478.9,222.9,478.9,223,478.9,222.9C479,223,479,223,478.9,222.9z
		 M479,223c0.7,0.8,1.1,1.9,1.2,3.1C480,225.1,479.8,224,479,223z M479.2,229.9c-0.7,0.9-1.7,1.7-2.7,2c-1.1,0.4-3.4,0.7-6.6,0.7
		h-4.6v0.1h4.6c3.2,0,5.6-0.1,6.6-0.7c1.1-0.4,2-1.1,2.7-2s0.9-2,0.9-3.2C480,227.9,479.8,229,479.2,229.9z M511.8,240.7v1.7
		c0,1.9-0.1,3.2-0.2,3.9c-0.2,0.9-1.1,2-2,2.7c-1.2,0.8-2.3,1.3-3.6,1.3c1.3-0.1,2.5-0.6,3.8-1.3c0.9-0.7,1.8-1.8,2-2.7
		c0.1-0.7,0.2-2,0.2-3.9v-1.8C512,240.6,512,240.6,511.8,240.7z M506.9,241.7c-2.1,0.9-3.6,1.3-4.4,1.8c-0.9,0.8-1.7,1.8-1.7,2.8
		s0.4,2.1,1.2,3c0.7,0.7,1.7,0.9,2.4,1.1c-0.8-0.1-1.8-0.4-2.3-1.1c-0.8-0.8-1.2-1.9-1.2-3s0.7-2,1.7-2.8c0.8-0.2,2-0.8,4.4-1.2
		c2.1-0.4,3.6-0.9,4.9-1.4v-0.1C510.9,240.8,509.2,241.4,506.9,241.7z M622.6,232.3c-1.1-1.1-2.5-1.9-4.2-1.9c-1.9,0-3.1,0.7-4.4,2
		c-1.1,1.2-1.8,3-1.8,5.1h0.1c0-2.1,0.7-3.8,1.8-5c1.2-1.3,2.5-2,4.4-2c1.7,0,3,0.7,4,1.9c0.8,0.8,1.3,1.8,1.7,3
		C624.1,234.2,623.6,233.1,622.6,232.3z M624.4,235.6c0.1,0.7,0.1,1.3,0.1,2h-11.9v0.1h12.1C624.5,237,624.5,236.3,624.4,235.6z
		 M622.6,232.3c-1.1-1.1-2.5-1.9-4.2-1.9c-1.9,0-3.1,0.7-4.4,2c-1.1,1.2-1.8,3-1.8,5.1h0.1c0-2.1,0.7-3.8,1.8-5c1.2-1.3,2.5-2,4.4-2
		c1.7,0,3,0.7,4,1.9c0.8,0.8,1.3,1.8,1.7,3C624.1,234.2,623.6,233.1,622.6,232.3z M624.4,235.6c0.1,0.7,0.1,1.3,0.1,2h-11.9v0.1
		h12.1C624.5,237,624.5,236.3,624.4,235.6z M511.8,240.7v1.7c0,1.9-0.1,3.2-0.2,3.9c-0.2,0.9-1.1,2-2,2.7c-1.2,0.8-2.3,1.3-3.6,1.3
		c1.3-0.1,2.5-0.6,3.8-1.3c0.9-0.7,1.8-1.8,2-2.7c0.1-0.7,0.2-2,0.2-3.9v-1.8C512,240.6,512,240.6,511.8,240.7z M506.9,241.7
		c-2.1,0.9-3.6,1.3-4.4,1.8c-0.9,0.8-1.7,1.8-1.7,2.8s0.4,2.1,1.2,3c0.7,0.7,1.7,0.9,2.4,1.1c-0.8-0.1-1.8-0.4-2.3-1.1
		c-0.8-0.8-1.2-1.9-1.2-3s0.7-2,1.7-2.8c0.8-0.2,2-0.8,4.4-1.2c2.1-0.4,3.6-0.9,4.9-1.4v-0.1C510.9,240.8,509.2,241.4,506.9,241.7z
		 M475.5,220.9c-0.9-0.1-3-0.2-6.1-0.2h-4.2v0.1h4.2c3.1,0,5.1,0.1,6.1,0.2c1.1,0.1,1.9,0.6,2.7,1.2
		C477.4,221.6,476.5,221,475.5,220.9z M478.9,222.9l-0.1-0.1C478.9,222.9,478.9,223,478.9,222.9C479,223,479,223,478.9,222.9z
		 M479,223c0.7,0.8,1.1,1.9,1.2,3.1C480,225.1,479.8,224,479,223z M479.2,229.9c-0.7,0.9-1.7,1.7-2.7,2c-1.1,0.4-3.4,0.7-6.6,0.7
		h-4.6v0.1h4.6c3.2,0,5.6-0.1,6.6-0.7c1.1-0.4,2-1.1,2.7-2s0.9-2,0.9-3.2C480,227.9,479.8,229,479.2,229.9z M300.5,233.4
		c-0.4-0.4-0.7-0.7-1.1-0.9c0.4,0.4,0.7,0.8,1.1,1.3c1.3,1.2,2,3.2,2.1,5.6C302.7,236.8,302,234.9,300.5,233.4z M300.5,247.1
		c-1.7,1.8-3.1,2.5-5.3,2.5c-2.1,0-3.8-0.8-5.3-2.5c-1.3-1.3-2-3.3-2.1-5.8c0.1,2.5,0.8,4.5,2.1,5.9c1.7,1.7,3.1,2.5,5.3,2.5
		C297.3,249.7,299,248.9,300.5,247.1c1.3-1.3,2-3.3,2.1-5.8C302.7,243.8,302,245.7,300.5,247.1z M295.3,231c-2.1,0-3.8,0.8-5.3,2.5
		c-1.3,1.4-2,3.4-2.1,5.9c0.1-2.4,0.8-4.3,2.1-5.8C291.7,231.8,293.1,231.1,295.3,231c1.1,0.1,2.1,0.2,3.1,0.7
		C297.4,231.2,296.4,231,295.3,231z M300.5,233.4c-0.4-0.4-0.7-0.7-1.1-0.9c0.4,0.4,0.7,0.8,1.1,1.3c1.3,1.2,2,3.2,2.1,5.6
		C302.7,236.8,302,234.9,300.5,233.4z M300.5,247.1c-1.7,1.8-3.1,2.5-5.3,2.5c-2.1,0-3.8-0.8-5.3-2.5c-1.3-1.3-2-3.3-2.1-5.8
		c0.1,2.5,0.8,4.5,2.1,5.9c1.7,1.7,3.1,2.5,5.3,2.5C297.3,249.7,299,248.9,300.5,247.1c1.3-1.3,2-3.3,2.1-5.8
		C302.7,243.8,302,245.7,300.5,247.1z M295.3,231c-2.1,0-3.8,0.8-5.3,2.5c-1.3,1.4-2,3.4-2.1,5.9c0.1-2.4,0.8-4.3,2.1-5.8
		C291.7,231.8,293.1,231.1,295.3,231c1.1,0.1,2.1,0.2,3.1,0.7C297.4,231.2,296.4,231,295.3,231z M475.5,220.9
		c-0.9-0.1-3-0.2-6.1-0.2h-4.2v0.1h4.2c3.1,0,5.1,0.1,6.1,0.2c1.1,0.1,1.9,0.6,2.7,1.2C477.4,221.6,476.5,221,475.5,220.9z
		 M478.9,222.9l-0.1-0.1C478.9,222.9,478.9,223,478.9,222.9C479,223,479,223,478.9,222.9z M479,223c0.7,0.8,1.1,1.9,1.2,3.1
		C480,225.1,479.8,224,479,223z M479.2,229.9c-0.7,0.9-1.7,1.7-2.7,2c-1.1,0.4-3.4,0.7-6.6,0.7h-4.6v0.1h4.6c3.2,0,5.6-0.1,6.6-0.7
		c1.1-0.4,2-1.1,2.7-2s0.9-2,0.9-3.2C480,227.9,479.8,229,479.2,229.9z M511.8,240.7v1.7c0,1.9-0.1,3.2-0.2,3.9
		c-0.2,0.9-1.1,2-2,2.7c-1.2,0.8-2.3,1.3-3.6,1.3c1.3-0.1,2.5-0.6,3.8-1.3c0.9-0.7,1.8-1.8,2-2.7c0.1-0.7,0.2-2,0.2-3.9v-1.8
		C512,240.6,512,240.6,511.8,240.7z M506.9,241.7c-2.1,0.9-3.6,1.3-4.4,1.8c-0.9,0.8-1.7,1.8-1.7,2.8s0.4,2.1,1.2,3
		c0.7,0.7,1.7,0.9,2.4,1.1c-0.8-0.1-1.8-0.4-2.3-1.1c-0.8-0.8-1.2-1.9-1.2-3s0.7-2,1.7-2.8c0.8-0.2,2-0.8,4.4-1.2
		c2.1-0.4,3.6-0.9,4.9-1.4v-0.1C510.9,240.8,509.2,241.4,506.9,241.7z M622.6,232.3c-1.1-1.1-2.5-1.9-4.2-1.9c-1.9,0-3.1,0.7-4.4,2
		c-1.1,1.2-1.8,3-1.8,5.1h0.1c0-2.1,0.7-3.8,1.8-5c1.2-1.3,2.5-2,4.4-2c1.7,0,3,0.7,4,1.9c0.8,0.8,1.3,1.8,1.7,3
		C624.1,234.2,623.6,233.1,622.6,232.3z M624.4,235.6c0.1,0.7,0.1,1.3,0.1,2h-11.9v0.1h12.1C624.5,237,624.5,236.3,624.4,235.6z
		 M300.5,233.4c-0.4-0.4-0.7-0.7-1.1-0.9c0.4,0.4,0.7,0.8,1.1,1.3c1.3,1.2,2,3.2,2.1,5.6C302.7,236.8,302,234.9,300.5,233.4z
		 M300.5,247.1c-1.7,1.8-3.1,2.5-5.3,2.5c-2.1,0-3.8-0.8-5.3-2.5c-1.3-1.3-2-3.3-2.1-5.8c0.1,2.5,0.8,4.5,2.1,5.9
		c1.7,1.7,3.1,2.5,5.3,2.5C297.3,249.7,299,248.9,300.5,247.1c1.3-1.3,2-3.3,2.1-5.8C302.7,243.8,302,245.7,300.5,247.1z M295.3,231
		c-2.1,0-3.8,0.8-5.3,2.5c-1.3,1.4-2,3.4-2.1,5.9c0.1-2.4,0.8-4.3,2.1-5.8C291.7,231.8,293.1,231.1,295.3,231
		c1.1,0.1,2.1,0.2,3.1,0.7C297.4,231.2,296.4,231,295.3,231z M475.5,220.9c-0.9-0.1-3-0.2-6.1-0.2h-4.2v0.1h4.2
		c3.1,0,5.1,0.1,6.1,0.2c1.1,0.1,1.9,0.6,2.7,1.2C477.4,221.6,476.5,221,475.5,220.9z M478.9,222.9l-0.1-0.1
		C478.9,222.9,478.9,223,478.9,222.9C479,223,479,223,478.9,222.9z M479,223c0.7,0.8,1.1,1.9,1.2,3.1C480,225.1,479.8,224,479,223z
		 M479.2,229.9c-0.7,0.9-1.7,1.7-2.7,2c-1.1,0.4-3.4,0.7-6.6,0.7h-4.6v0.1h4.6c3.2,0,5.6-0.1,6.6-0.7c1.1-0.4,2-1.1,2.7-2
		s0.9-2,0.9-3.2C480,227.9,479.8,229,479.2,229.9z M511.8,240.7v1.7c0,1.9-0.1,3.2-0.2,3.9c-0.2,0.9-1.1,2-2,2.7
		c-1.2,0.8-2.3,1.3-3.6,1.3c1.3-0.1,2.5-0.6,3.8-1.3c0.9-0.7,1.8-1.8,2-2.7c0.1-0.7,0.2-2,0.2-3.9v-1.8
		C512,240.6,512,240.6,511.8,240.7z M506.9,241.7c-2.1,0.9-3.6,1.3-4.4,1.8c-0.9,0.8-1.7,1.8-1.7,2.8s0.4,2.1,1.2,3
		c0.7,0.7,1.7,0.9,2.4,1.1c-0.8-0.1-1.8-0.4-2.3-1.1c-0.8-0.8-1.2-1.9-1.2-3s0.7-2,1.7-2.8c0.8-0.2,2-0.8,4.4-1.2
		c2.1-0.4,3.6-0.9,4.9-1.4v-0.1C510.9,240.8,509.2,241.4,506.9,241.7z M622.6,232.3c-1.1-1.1-2.5-1.9-4.2-1.9c-1.9,0-3.1,0.7-4.4,2
		c-1.1,1.2-1.8,3-1.8,5.1h0.1c0-2.1,0.7-3.8,1.8-5c1.2-1.3,2.5-2,4.4-2c1.7,0,3,0.7,4,1.9c0.8,0.8,1.3,1.8,1.7,3
		C624.1,234.2,623.6,233.1,622.6,232.3z M624.4,235.6c0.1,0.7,0.1,1.3,0.1,2h-11.9v0.1h12.1C624.5,237,624.5,236.3,624.4,235.6z
		 M622.6,232.3c-1.1-1.1-2.5-1.9-4.2-1.9c-1.9,0-3.1,0.7-4.4,2c-1.1,1.2-1.8,3-1.8,5.1h0.1c0-2.1,0.7-3.8,1.8-5c1.2-1.3,2.5-2,4.4-2
		c1.7,0,3,0.7,4,1.9c0.8,0.8,1.3,1.8,1.7,3C624.1,234.2,623.6,233.1,622.6,232.3z M624.4,235.6c0.1,0.7,0.1,1.3,0.1,2h-11.9v0.1
		h12.1C624.5,237,624.5,236.3,624.4,235.6z M511.8,240.7v1.7c0,1.9-0.1,3.2-0.2,3.9c-0.2,0.9-1.1,2-2,2.7c-1.2,0.8-2.3,1.3-3.6,1.3
		c1.3-0.1,2.5-0.6,3.8-1.3c0.9-0.7,1.8-1.8,2-2.7c0.1-0.7,0.2-2,0.2-3.9v-1.8C512,240.6,512,240.6,511.8,240.7z M506.9,241.7
		c-2.1,0.9-3.6,1.3-4.4,1.8c-0.9,0.8-1.7,1.8-1.7,2.8s0.4,2.1,1.2,3c0.7,0.7,1.7,0.9,2.4,1.1c-0.8-0.1-1.8-0.4-2.3-1.1
		c-0.8-0.8-1.2-1.9-1.2-3s0.7-2,1.7-2.8c0.8-0.2,2-0.8,4.4-1.2c2.1-0.4,3.6-0.9,4.9-1.4v-0.1C510.9,240.8,509.2,241.4,506.9,241.7z
		 M475.5,220.9c-0.9-0.1-3-0.2-6.1-0.2h-4.2v0.1h4.2c3.1,0,5.1,0.1,6.1,0.2c1.1,0.1,1.9,0.6,2.7,1.2
		C477.4,221.6,476.5,221,475.5,220.9z M478.9,222.9l-0.1-0.1C478.9,222.9,478.9,223,478.9,222.9C479,223,479,223,478.9,222.9z
		 M479,223c0.7,0.8,1.1,1.9,1.2,3.1C480,225.1,479.8,224,479,223z M479.2,229.9c-0.7,0.9-1.7,1.7-2.7,2c-1.1,0.4-3.4,0.7-6.6,0.7
		h-4.6v0.1h4.6c3.2,0,5.6-0.1,6.6-0.7c1.1-0.4,2-1.1,2.7-2s0.9-2,0.9-3.2C480,227.9,479.8,229,479.2,229.9z M300.5,233.4
		c-0.4-0.4-0.7-0.7-1.1-0.9c0.4,0.4,0.7,0.8,1.1,1.3c1.3,1.2,2,3.2,2.1,5.6C302.7,236.8,302,234.9,300.5,233.4z M300.5,247.1
		c-1.7,1.8-3.1,2.5-5.3,2.5c-2.1,0-3.8-0.8-5.3-2.5c-1.3-1.3-2-3.3-2.1-5.8c0.1,2.5,0.8,4.5,2.1,5.9c1.7,1.7,3.1,2.5,5.3,2.5
		C297.3,249.7,299,248.9,300.5,247.1c1.3-1.3,2-3.3,2.1-5.8C302.7,243.8,302,245.7,300.5,247.1z M295.3,231c-2.1,0-3.8,0.8-5.3,2.5
		c-1.3,1.4-2,3.4-2.1,5.9c0.1-2.4,0.8-4.3,2.1-5.8C291.7,231.8,293.1,231.1,295.3,231c1.1,0.1,2.1,0.2,3.1,0.7
		C297.4,231.2,296.4,231,295.3,231z M300.5,233.4c-0.4-0.4-0.7-0.7-1.1-0.9c0.4,0.4,0.7,0.8,1.1,1.3c1.3,1.2,2,3.2,2.1,5.6
		C302.7,236.8,302,234.9,300.5,233.4z M300.5,247.1c-1.7,1.8-3.1,2.5-5.3,2.5c-2.1,0-3.8-0.8-5.3-2.5c-1.3-1.3-2-3.3-2.1-5.8
		c0.1,2.5,0.8,4.5,2.1,5.9c1.7,1.7,3.1,2.5,5.3,2.5C297.3,249.7,299,248.9,300.5,247.1c1.3-1.3,2-3.3,2.1-5.8
		C302.7,243.8,302,245.7,300.5,247.1z M295.3,231c-2.1,0-3.8,0.8-5.3,2.5c-1.3,1.4-2,3.4-2.1,5.9c0.1-2.4,0.8-4.3,2.1-5.8
		C291.7,231.8,293.1,231.1,295.3,231c1.1,0.1,2.1,0.2,3.1,0.7C297.4,231.2,296.4,231,295.3,231z M475.5,220.9
		c-0.9-0.1-3-0.2-6.1-0.2h-4.2v0.1h4.2c3.1,0,5.1,0.1,6.1,0.2c1.1,0.1,1.9,0.6,2.7,1.2C477.4,221.6,476.5,221,475.5,220.9z
		 M478.9,222.9l-0.1-0.1C478.9,222.9,478.9,223,478.9,222.9C479,223,479,223,478.9,222.9z M479,223c0.7,0.8,1.1,1.9,1.2,3.1
		C480,225.1,479.8,224,479,223z M479.2,229.9c-0.7,0.9-1.7,1.7-2.7,2c-1.1,0.4-3.4,0.7-6.6,0.7h-4.6v0.1h4.6c3.2,0,5.6-0.1,6.6-0.7
		c1.1-0.4,2-1.1,2.7-2s0.9-2,0.9-3.2C480,227.9,479.8,229,479.2,229.9z M511.8,240.7v1.7c0,1.9-0.1,3.2-0.2,3.9
		c-0.2,0.9-1.1,2-2,2.7c-1.2,0.8-2.3,1.3-3.6,1.3c1.3-0.1,2.5-0.6,3.8-1.3c0.9-0.7,1.8-1.8,2-2.7c0.1-0.7,0.2-2,0.2-3.9v-1.8
		C512,240.6,512,240.6,511.8,240.7z M506.9,241.7c-2.1,0.9-3.6,1.3-4.4,1.8c-0.9,0.8-1.7,1.8-1.7,2.8s0.4,2.1,1.2,3
		c0.7,0.7,1.7,0.9,2.4,1.1c-0.8-0.1-1.8-0.4-2.3-1.1c-0.8-0.8-1.2-1.9-1.2-3s0.7-2,1.7-2.8c0.8-0.2,2-0.8,4.4-1.2
		c2.1-0.4,3.6-0.9,4.9-1.4v-0.1C510.9,240.8,509.2,241.4,506.9,241.7z M622.6,232.3c-1.1-1.1-2.5-1.9-4.2-1.9c-1.9,0-3.1,0.7-4.4,2
		c-1.1,1.2-1.8,3-1.8,5.1h0.1c0-2.1,0.7-3.8,1.8-5c1.2-1.3,2.5-2,4.4-2c1.7,0,3,0.7,4,1.9c0.8,0.8,1.3,1.8,1.7,3
		C624.1,234.2,623.6,233.1,622.6,232.3z M624.4,235.6c0.1,0.7,0.1,1.3,0.1,2h-11.9v0.1h12.1C624.5,237,624.5,236.3,624.4,235.6z
		 M624.4,235.6c0.1,0.7,0.1,1.3,0.1,2h-11.9v0.1h12.1C624.5,237,624.5,236.3,624.4,235.6z M506.9,241.7c-2.1,0.9-3.6,1.3-4.4,1.8
		c-0.9,0.8-1.7,1.8-1.7,2.8s0.4,2.1,1.2,3c0.7,0.7,1.7,0.9,2.4,1.1c-0.8-0.1-1.8-0.4-2.3-1.1c-0.8-0.8-1.2-1.9-1.2-3s0.7-2,1.7-2.8
		c0.8-0.2,2-0.8,4.4-1.2c2.1-0.4,3.6-0.9,4.9-1.4v-0.1C510.9,240.8,509.2,241.4,506.9,241.7z M478.9,222.9l-0.1-0.1
		C478.9,222.9,478.9,223,478.9,222.9C479,223,479,223,478.9,222.9z M479.2,229.9c-0.7,0.9-1.7,1.7-2.7,2c-1.1,0.4-3.4,0.7-6.6,0.7
		h-4.6v0.1h4.6c3.2,0,5.6-0.1,6.6-0.7c1.1-0.4,2-1.1,2.7-2s0.9-2,0.9-3.2C480,227.9,479.8,229,479.2,229.9z M300.5,247.1
		c-1.7,1.8-3.1,2.5-5.3,2.5c-2.1,0-3.8-0.8-5.3-2.5c-1.3-1.3-2-3.3-2.1-5.8c0.1,2.5,0.8,4.5,2.1,5.9c1.7,1.7,3.1,2.5,5.3,2.5
		C297.3,249.7,299,248.9,300.5,247.1c1.3-1.3,2-3.3,2.1-5.8C302.7,243.8,302,245.7,300.5,247.1z M300.5,233.4
		c-0.4-0.4-0.7-0.7-1.1-0.9c0.4,0.4,0.7,0.8,1.1,1.3c1.3,1.2,2,3.2,2.1,5.6C302.7,236.8,302,234.9,300.5,233.4z M295.3,231
		c-2.1,0-3.8,0.8-5.3,2.5c-1.3,1.4-2,3.4-2.1,5.9c0.1-2.4,0.8-4.3,2.1-5.8C291.7,231.8,293.1,231.1,295.3,231
		c1.1,0.1,2.1,0.2,3.1,0.7C297.4,231.2,296.4,231,295.3,231z M475.5,220.9c-0.9-0.1-3-0.2-6.1-0.2h-4.2v0.1h4.2
		c3.1,0,5.1,0.1,6.1,0.2c1.1,0.1,1.9,0.6,2.7,1.2C477.4,221.6,476.5,221,475.5,220.9z M479,223c0.7,0.8,1.1,1.9,1.2,3.1
		C480,225.1,479.8,224,479,223z M511.8,240.7v1.7c0,1.9-0.1,3.2-0.2,3.9c-0.2,0.9-1.1,2-2,2.7c-1.2,0.8-2.3,1.3-3.6,1.3
		c1.3-0.1,2.5-0.6,3.8-1.3c0.9-0.7,1.8-1.8,2-2.7c0.1-0.7,0.2-2,0.2-3.9v-1.8C512,240.6,512,240.6,511.8,240.7z M511.8,240.7v1.7
		c0,1.9-0.1,3.2-0.2,3.9c-0.2,0.9-1.1,2-2,2.7c-1.2,0.8-2.3,1.3-3.6,1.3c1.3-0.1,2.5-0.6,3.8-1.3c0.9-0.7,1.8-1.8,2-2.7
		c0.1-0.7,0.2-2,0.2-3.9v-1.8C512,240.6,512,240.6,511.8,240.7z M475.5,220.9c-0.9-0.1-3-0.2-6.1-0.2h-4.2v0.1h4.2
		c3.1,0,5.1,0.1,6.1,0.2c1.1,0.1,1.9,0.6,2.7,1.2C477.4,221.6,476.5,221,475.5,220.9z M479,223c0.7,0.8,1.1,1.9,1.2,3.1
		C480,225.1,479.8,224,479,223z M300.5,233.4c-0.4-0.4-0.7-0.7-1.1-0.9c0.4,0.4,0.7,0.8,1.1,1.3c1.3,1.2,2,3.2,2.1,5.6
		C302.7,236.8,302,234.9,300.5,233.4z M295.3,231c-2.1,0-3.8,0.8-5.3,2.5c-1.3,1.4-2,3.4-2.1,5.9c0.1-2.4,0.8-4.3,2.1-5.8
		C291.7,231.8,293.1,231.1,295.3,231c1.1,0.1,2.1,0.2,3.1,0.7C297.4,231.2,296.4,231,295.3,231z M300.5,233.4
		c-0.4-0.4-0.7-0.7-1.1-0.9c0.4,0.4,0.7,0.8,1.1,1.3c1.3,1.2,2,3.2,2.1,5.6C302.7,236.8,302,234.9,300.5,233.4z M295.3,231
		c-2.1,0-3.8,0.8-5.3,2.5c-1.3,1.4-2,3.4-2.1,5.9c0.1-2.4,0.8-4.3,2.1-5.8C291.7,231.8,293.1,231.1,295.3,231
		c1.1,0.1,2.1,0.2,3.1,0.7C297.4,231.2,296.4,231,295.3,231z M475.5,220.9c-0.9-0.1-3-0.2-6.1-0.2h-4.2v0.1h4.2
		c3.1,0,5.1,0.1,6.1,0.2c1.1,0.1,1.9,0.6,2.7,1.2C477.4,221.6,476.5,221,475.5,220.9z M479,223c0.7,0.8,1.1,1.9,1.2,3.1
		C480,225.1,479.8,224,479,223z M511.8,240.7v1.7c0,1.9-0.1,3.2-0.2,3.9c-0.2,0.9-1.1,2-2,2.7c-1.2,0.8-2.3,1.3-3.6,1.3
		c1.3-0.1,2.5-0.6,3.8-1.3c0.9-0.7,1.8-1.8,2-2.7c0.1-0.7,0.2-2,0.2-3.9v-1.8C512,240.6,512,240.6,511.8,240.7z M511.8,240.7v1.7
		c0,1.9-0.1,3.2-0.2,3.9c-0.2,0.9-1.1,2-2,2.7c-1.2,0.8-2.3,1.3-3.6,1.3c1.3-0.1,2.5-0.6,3.8-1.3c0.9-0.7,1.8-1.8,2-2.7
		c0.1-0.7,0.2-2,0.2-3.9v-1.8C512,240.6,512,240.6,511.8,240.7z M475.5,220.9c-0.9-0.1-3-0.2-6.1-0.2h-4.2v0.1h4.2
		c3.1,0,5.1,0.1,6.1,0.2c1.1,0.1,1.9,0.6,2.7,1.2C477.4,221.6,476.5,221,475.5,220.9z M479,223c0.7,0.8,1.1,1.9,1.2,3.1
		C480,225.1,479.8,224,479,223z M300.5,233.4c-0.4-0.4-0.7-0.7-1.1-0.9c0.4,0.4,0.7,0.8,1.1,1.3c1.3,1.2,2,3.2,2.1,5.6
		C302.7,236.8,302,234.9,300.5,233.4z M295.3,231c-2.1,0-3.8,0.8-5.3,2.5c-1.3,1.4-2,3.4-2.1,5.9c0.1-2.4,0.8-4.3,2.1-5.8
		C291.7,231.8,293.1,231.1,295.3,231c1.1,0.1,2.1,0.2,3.1,0.7C297.4,231.2,296.4,231,295.3,231z M300.5,233.4
		c-0.4-0.4-0.7-0.7-1.1-0.9c0.4,0.4,0.7,0.8,1.1,1.3c1.3,1.2,2,3.2,2.1,5.6C302.7,236.8,302,234.9,300.5,233.4z M295.3,231
		c-2.1,0-3.8,0.8-5.3,2.5c-1.3,1.4-2,3.4-2.1,5.9c0.1-2.4,0.8-4.3,2.1-5.8C291.7,231.8,293.1,231.1,295.3,231
		c1.1,0.1,2.1,0.2,3.1,0.7C297.4,231.2,296.4,231,295.3,231z M475.5,220.9c-0.9-0.1-3-0.2-6.1-0.2h-4.2v0.1h4.2
		c3.1,0,5.1,0.1,6.1,0.2c1.1,0.1,1.9,0.6,2.7,1.2C477.4,221.6,476.5,221,475.5,220.9z M479,223c0.7,0.8,1.1,1.9,1.2,3.1
		C480,225.1,479.8,224,479,223z M475.5,220.9c-0.9-0.1-3-0.2-6.1-0.2h-4.2v0.1h4.2c3.1,0,5.1,0.1,6.1,0.2c1.1,0.1,1.9,0.6,2.7,1.2
		C477.4,221.6,476.5,221,475.5,220.9z M479,223c0.7,0.8,1.1,1.9,1.2,3.1C480,225.1,479.8,224,479,223z M300.5,233.4
		c-0.4-0.4-0.7-0.7-1.1-0.9c0.4,0.4,0.7,0.8,1.1,1.3c1.3,1.2,2,3.2,2.1,5.6C302.7,236.8,302,234.9,300.5,233.4z M295.3,231
		c-2.1,0-3.8,0.8-5.3,2.5c-1.3,1.4-2,3.4-2.1,5.9c0.1-2.4,0.8-4.3,2.1-5.8C291.7,231.8,293.1,231.1,295.3,231
		c1.1,0.1,2.1,0.2,3.1,0.7C297.4,231.2,296.4,231,295.3,231z M300.5,233.4c-0.4-0.4-0.7-0.7-1.1-0.9c0.4,0.4,0.7,0.8,1.1,1.3
		c1.3,1.2,2,3.2,2.1,5.6C302.7,236.8,302,234.9,300.5,233.4z M295.3,231c-2.1,0-3.8,0.8-5.3,2.5c-1.3,1.4-2,3.4-2.1,5.9
		c0.1-2.4,0.8-4.3,2.1-5.8C291.7,231.8,293.1,231.1,295.3,231c1.1,0.1,2.1,0.2,3.1,0.7C297.4,231.2,296.4,231,295.3,231z
		 M300.5,233.4c-0.4-0.4-0.7-0.7-1.1-0.9c0.4,0.4,0.7,0.8,1.1,1.3c1.3,1.2,2,3.2,2.1,5.6C302.7,236.8,302,234.9,300.5,233.4z
		 M295.3,231c-2.1,0-3.8,0.8-5.3,2.5c-1.3,1.4-2,3.4-2.1,5.9c0.1-2.4,0.8-4.3,2.1-5.8C291.7,231.8,293.1,231.1,295.3,231
		c1.1,0.1,2.1,0.2,3.1,0.7C297.4,231.2,296.4,231,295.3,231z M300.5,233.4c-0.4-0.4-0.7-0.7-1.1-0.9c0.4,0.4,0.7,0.8,1.1,1.3
		c1.3,1.2,2,3.2,2.1,5.6C302.7,236.8,302,234.9,300.5,233.4z M295.3,231c-2.1,0-3.8,0.8-5.3,2.5c-1.3,1.4-2,3.4-2.1,5.9
		c0.1-2.4,0.8-4.3,2.1-5.8C291.7,231.8,293.1,231.1,295.3,231c1.1,0.1,2.1,0.2,3.1,0.7C297.4,231.2,296.4,231,295.3,231z
		 M300.5,233.4c-0.4-0.4-0.7-0.7-1.1-0.9c0.4,0.4,0.7,0.8,1.1,1.3c1.3,1.2,2,3.2,2.1,5.6C302.7,236.8,302,234.9,300.5,233.4z
		 M295.3,231c-2.1,0-3.8,0.8-5.3,2.5c-1.3,1.4-2,3.4-2.1,5.9c0.1-2.4,0.8-4.3,2.1-5.8C291.7,231.8,293.1,231.1,295.3,231
		c1.1,0.1,2.1,0.2,3.1,0.7C297.4,231.2,296.4,231,295.3,231z"/>
	<path class="st1" d="M661.6,200.7H246.3c-0.2,0-0.6,0-0.8,0h-4.6l0,0h-1.3c-3.8,0-7,3-6.6,7.2v56.6c0.1,3.8,2.8,5.9,6.6,6.1h422.3
		c3.8,0,7-3,6.6-7.2v-56.6C668.2,203,665.5,200.9,661.6,200.7z M267.2,255.4h-8.4v-17.7l-15.4-24.2h10.1l10.1,16.4l9.6-16.4h9.7
		l-15.4,24.2L267.2,255.4z M306.6,251.7c-3,3-6.6,4.4-11.3,4.4c-2.8,0-5.5-0.7-7.9-1.9c-2.5-1.2-4.5-3.1-5.8-5.5
		c-1.2-2.5-2-5.5-2-8.8c0-2.7,0.7-5.3,2-7.7c1.3-2.5,3.1-4.4,5.6-5.8c2.5-1.2,5.1-2,8.2-2c4.6,0,8.3,1.3,11.3,4.4
		c3,3,4.5,6.6,4.5,11.3C311.1,244.9,309.4,248.7,306.6,251.7z M344.3,255.5l-0.2-0.1h-7.5v-4.6c-1.1,1.8-2.5,3-4.4,3.8
		c-1.9,0.9-3.6,1.2-5.8,1.2c-2,0-3.8-0.4-5.5-1.2s-2.8-2.1-3.4-3.8c-0.7-1.8-1.1-3.8-1.1-6.6v-19h8.2V239c0,4.2,0.1,6.9,0.4,7.7
		c0.2,0.9,0.8,1.8,1.8,2.3c0.8,0.4,1.9,0.8,3,0.8c1.2,0,2.7-0.2,3.6-1.1c1.1-0.8,1.9-1.8,2.3-2.8c0.2-1.1,0.7-3.8,0.7-8.3V225h8.2
		L344.3,255.5L344.3,255.5z M368.5,233.1c-1.2-0.8-2.7-1.2-3.8-1.2c-1.1,0-2.1,0.2-2.8,0.9c-0.8,0.7-1.2,1.8-1.9,3.2
		c-0.4,1.8-0.7,5-0.7,10.2v9.4h-8.2v-30.3h7.5v4.2c1.2-2,2.5-3.2,3.4-3.9s2.1-0.9,3.4-0.9c1.9,0,3.6,0.4,5.3,1.3L368.5,233.1z
		 M398.1,255.4h-8.4v-41.9h8.4V255.4z M435.5,220.8h-12.3v34.8h-8.4v-34.8h-12.5v-7h33.2L435.5,220.8L435.5,220.8z M487.6,233.1
		c-0.9,1.9-2.1,3.1-3.6,4c-1.7,0.9-3,1.8-4.5,2c-2,0.2-5,0.7-8.7,0.7h-5.5v15.7H457v-41.9h13.5c5.1,0,8.4,0.1,10.2,0.7
		c2.5,0.7,4.5,2,6.1,4c1.8,2.1,2.5,4.9,2.5,8.2C488.9,229.1,488.3,231.2,487.6,233.1z M513.5,255.4l-0.2-0.1h0.2
		c-0.1-0.6-0.4-1.2-0.7-2.1c-0.1-0.4-0.1-0.8-0.2-0.9c-1.2,1.2-2.8,2.3-4.5,3s-3.1,0.9-5,0.9c-3.1,0-5.6-0.8-7.5-2.5
		s-2.7-3.8-2.7-6.4c0-1.8,0.4-3.2,1.1-4.6c0.7-1.2,2-2.3,3.4-3.1c1.7-0.7,3.6-1.2,6.4-1.9c3.8-0.7,6.3-1.2,7.7-2v-0.8
		c0-1.3-0.2-2.7-1.1-3.2c-0.8-0.7-2.1-0.9-4.4-0.9c-1.7,0-2.5,0.2-3.2,0.8s-1.7,1.3-2,3l-7.4-1.2c0.8-3,2.3-5.1,4.4-6.4
		c2-1.2,5-2.1,8.8-2.1c3.6,0,6.3,0.4,7.9,1.2c1.9,0.8,3,2,3.6,3.2s1.1,3.6,1.1,7l-0.1,9.4c0,2.7,0.1,4.6,0.2,5.9
		c0.1,1.3,0.7,2.7,1.7,4h-7.5C513.5,255.3,513.5,255.4,513.5,255.4z M543.6,233.1c-1.2-0.8-2.7-1.2-3.8-1.2s-2.1,0.2-2.8,0.9
		c-0.8,0.7-1.2,1.8-1.9,3.2c-0.4,1.8-0.7,5-0.7,10.2v9.4h-8.2v-30.3h7.5v4.2c1.2-2,2.5-3.2,3.4-3.9s2.1-0.9,3.4-0.9
		c1.9,0,3.6,0.4,5.3,1.3L543.6,233.1z M561.1,256.1c-1.7,0-2.8-0.1-3.9-0.7c-1.1-0.4-2-1.1-2.5-1.9c-0.4-0.8-0.8-1.9-1.1-3.1
		c-0.1-0.9-0.1-2.8-0.1-5.6v-13.1h-3.6v-6.4h3.6v-6.1l8.2-4.6v10.7h5.5v6.4h-5.5V244c0,2.5,0,3.9,0.1,4.2c0.1,0.4,0.2,0.8,0.7,0.9
		c0.2,0.2,0.8,0.2,1.2,0.2c0.8,0,1.9-0.2,3.2-0.8l0.7,6.3C565.3,255.8,563.2,256.1,561.1,256.1z M591.1,255.4V240
		c0-3.2-0.1-5.5-0.4-6.4c-0.2-0.9-0.8-1.8-1.8-2.3c-0.8-0.4-1.8-0.8-2.8-0.8c-1.2,0-2.7,0.2-3.8,1.1c-1.1,0.8-1.9,1.9-2.3,3
		c-0.2,1.2-0.7,3.6-0.7,6.9v13.8h-8.2V225h7.5v4.4c2.7-3.4,5.9-5.1,10.2-5.1c1.9,0,3.2,0.2,4.9,0.9s2.7,1.3,3.2,2.5
		c0.8,0.9,1.2,2.1,1.7,3.2c0.2,1.2,0.4,3.1,0.4,5.5l0.1,19.1L591.1,255.4L591.1,255.4L591.1,255.4L591.1,255.4z M614.3,248.2
		c1.2,1.2,2.8,2,4.6,2c1.2,0,2.3-0.2,3.1-0.9s1.7-1.9,2-3.2l8.2,1.2c-0.9,3-2.7,5.1-5,6.6c-2.1,1.3-5,2.3-8.3,2.3
		c-5.3,0-9.3-1.8-11.6-5.1c-2-2.8-3-6.3-3-10.3c0-5,1.2-8.8,3.9-11.9c2.7-2.8,5.9-4.2,10.1-4.2c4.5,0,8.2,1.3,10.7,4.4
		c2.5,3.1,3.8,7.6,3.8,13.8h-20.2C612.4,245,613.2,246.9,614.3,248.2z M655.2,233.1c-1.2-0.8-2.7-1.2-3.8-1.2s-2.1,0.2-2.8,0.9
		c-0.8,0.7-1.2,1.8-1.9,3.2c-0.4,1.8-0.7,5-0.7,10.2v9.4h-8.2v-30.3h7.5v4.2c1.2-2,2.5-3.2,3.4-3.9s2.1-0.9,3.4-0.9
		c1.9,0,3.6,0.4,5.3,1.3L655.2,233.1z"/>
	<path class="st1" d="M624.4,237.6h-11.9c0-2.1,0.7-3.8,1.8-5c1.2-1.3,2.5-2,4.4-2c1.7,0,3,0.7,4,1.9c0.8,0.8,1.3,1.8,1.7,3v0.1
		C624.4,236.2,624.5,236.8,624.4,237.6z"/>
	<path class="st1" d="M511.8,240.7v1.7c0,1.9-0.1,3.2-0.2,3.9c-0.2,0.9-1.1,2-2,2.7c-1.2,0.8-2.3,1.3-3.6,1.3c-0.1,0-0.2,0-0.4,0
		s-0.2,0-0.4,0c-0.1,0-0.2,0-0.4,0c-0.8-0.1-1.8-0.4-2.3-1.1c-0.8-0.8-1.2-1.9-1.2-3s0.7-2,1.7-2.8c0.8-0.2,2-0.8,4.4-1.2
		C509.1,241.7,510.5,241.3,511.8,240.7z"/>
	<path class="st1" d="M480.2,226.6v0.1c0,1.2-0.4,2.3-0.9,3.1c-0.7,0.9-1.7,1.7-2.7,2c-1.1,0.4-3.4,0.7-6.6,0.7h-4.6v-11.6h4.2
		c3.1,0,5.1,0.1,6.1,0.2c1.1,0.1,1.9,0.6,2.7,1.2c0.2,0.1,0.4,0.4,0.6,0.6c0.1,0.1,0.1,0.1,0.2,0.2c0.7,0.8,1.1,1.9,1.2,3.1
		C480.2,226.2,480.2,226.4,480.2,226.6z"/>
	<path class="st1" d="M302.8,240.4c0,0.4,0,0.7,0,1.1c-0.1,2.4-0.8,4.3-2.1,5.8c-1.7,1.8-3.1,2.5-5.3,2.5c-2.1,0-3.8-0.8-5.3-2.5
		c-1.3-1.3-2-3.3-2.1-5.8c0-0.4,0-0.7,0-1.1c0-0.2,0-0.7,0-0.9c0.1-2.4,0.8-4.3,2.1-5.8c1.7-1.8,3.1-2.5,5.3-2.5
		c1.1,0,2.1,0.1,3.1,0.6c0.1,0.1,0.4,0.1,0.6,0.2l0.1,0.1c0.1,0.1,0.4,0.2,0.6,0.4c0.4,0.4,0.7,0.8,1.1,1.3c1.3,1.2,2,3.2,2.1,5.6
		C302.8,239.6,302.8,239.9,302.8,240.4z"/>
	<path class="st1" d="M248.9,200.6L248.9,200.6h-2.7c-0.2,0-0.6,0-0.8,0H248.9z"/>
</g>
</svg>
