<svg width="348" height="345" viewBox="0 0 348 345" fill="none" xmlns="http://www.w3.org/2000/svg">
<path d="M50.5 54C50.5 54 86 68.5 133.5 57.5C181 46.5 213 0 213 0L256.5 43L179.5 93C179.5 93 202 124.5 242 124.5C282 124.5 301 106 301 106L326 162L194.5 219.5C194.5 219.5 221 237.5 270.5 238.5C320 239.5 347.5 226 347.5 226V345H0.5V286C0.5 286 24.5 290 56.5 286C88.5 282 106.5 266.5 106.5 266.5L13 236L21 181C21 181 38.5 195 88.5 192.5C138.5 190 152 175.5 152 175.5L35.5 106L50.5 54Z" fill="#615EF4"/>
</svg>
