<svg width="1431" height="606" viewBox="0 0 1431 606" fill="none" xmlns="http://www.w3.org/2000/svg">
<g filter="url(#filter0_i_63_470)">
<circle cx="129" cy="93" r="93" fill="#FB9951"/>
</g>
<g filter="url(#filter1_i_63_470)">
<circle cx="899.5" cy="48.5" r="32.5" fill="#FB9951"/>
</g>
<g filter="url(#filter2_i_63_470)">
<circle cx="1261.5" cy="169.5" r="169.5" fill="#FB9951"/>
</g>
<circle cx="699.227" cy="125.529" r="4" transform="rotate(-22.5211 699.227 125.529)" fill="#C7D1D7"/>
<circle cx="717.702" cy="117.869" r="4" transform="rotate(-22.5211 717.702 117.869)" fill="#C7D1D7"/>
<circle cx="723.83" cy="132.649" r="4" transform="rotate(-22.5211 723.83 132.649)" fill="#C7D1D7"/>
<circle cx="742.305" cy="124.988" r="4" transform="rotate(-22.5211 742.305 124.988)" fill="#C7D1D7"/>
<circle cx="760.78" cy="117.328" r="4" transform="rotate(-22.5211 760.78 117.328)" fill="#C7D1D7"/>
<circle cx="779.255" cy="109.667" r="4" transform="rotate(-22.5211 779.255 109.667)" fill="#C7D1D7"/>
<circle cx="803.858" cy="116.787" r="4" transform="rotate(-22.5211 803.858 116.787)" fill="#C7D1D7"/>
<circle cx="785.383" cy="124.447" r="4" transform="rotate(-22.5211 785.383 124.447)" fill="#C7D1D7"/>
<circle cx="766.908" cy="132.108" r="4" transform="rotate(-22.5211 766.908 132.108)" fill="#C7D1D7"/>
<circle cx="748.433" cy="139.768" r="4" transform="rotate(-22.5211 748.433 139.768)" fill="#C7D1D7"/>
<circle cx="729.959" cy="147.429" r="4" transform="rotate(-22.5211 729.959 147.429)" fill="#C7D1D7"/>
<circle cx="711.484" cy="155.089" r="4" transform="rotate(-22.5211 711.484 155.089)" fill="#C7D1D7"/>
<circle cx="736.087" cy="162.208" r="4" transform="rotate(-22.5211 736.087 162.208)" fill="#C7D1D7"/>
<circle cx="754.562" cy="154.548" r="4" transform="rotate(-22.5211 754.562 154.548)" fill="#C7D1D7"/>
<circle cx="760.69" cy="169.328" r="4" transform="rotate(-22.5211 760.69 169.328)" fill="#C7D1D7"/>
<circle cx="779.165" cy="161.667" r="4" transform="rotate(-22.5211 779.165 161.667)" fill="#C7D1D7"/>
<circle cx="773.036" cy="146.887" r="4" transform="rotate(-22.5211 773.036 146.887)" fill="#C7D1D7"/>
<circle cx="791.511" cy="139.227" r="4" transform="rotate(-22.5211 791.511 139.227)" fill="#C7D1D7"/>
<circle cx="736.177" cy="110.208" r="4" transform="rotate(-22.5211 736.177 110.208)" fill="#C7D1D7"/>
<circle cx="754.651" cy="102.548" r="4" transform="rotate(-22.5211 754.651 102.548)" fill="#C7D1D7"/>
<circle cx="773.126" cy="94.8875" r="4" transform="rotate(-22.5211 773.126 94.8875)" fill="#C7D1D7"/>
<circle cx="791.601" cy="87.227" r="4" transform="rotate(-22.5211 791.601 87.227)" fill="#C7D1D7"/>
<circle cx="2.77978" cy="431.328" r="4" transform="rotate(-22.5211 2.77978 431.328)" fill="#C7D1D7"/>
<circle cx="21.2545" cy="423.667" r="4" transform="rotate(-22.5211 21.2545 423.667)" fill="#C7D1D7"/>
<circle cx="45.8577" cy="430.787" r="4" transform="rotate(-22.5211 45.8577 430.787)" fill="#C7D1D7"/>
<circle cx="27.3829" cy="438.447" r="4" transform="rotate(-22.5211 27.3829 438.447)" fill="#C7D1D7"/>
<circle cx="8.90808" cy="446.108" r="4" transform="rotate(-22.5211 8.90808 446.108)" fill="#C7D1D7"/>
<circle cx="-3.43824" cy="468.548" r="4" transform="rotate(-22.5211 -3.43824 468.548)" fill="#C7D1D7"/>
<circle cx="2.69006" cy="483.328" r="4" transform="rotate(-22.5211 2.69006 483.328)" fill="#C7D1D7"/>
<circle cx="21.1649" cy="475.667" r="4" transform="rotate(-22.5211 21.1649 475.667)" fill="#C7D1D7"/>
<circle cx="15.0365" cy="460.887" r="4" transform="rotate(-22.5211 15.0365 460.887)" fill="#C7D1D7"/>
<circle cx="33.5112" cy="453.227" r="4" transform="rotate(-22.5211 33.5112 453.227)" fill="#C7D1D7"/>
<circle cx="-3.34864" cy="416.548" r="4" transform="rotate(-22.5211 -3.34864 416.548)" fill="#C7D1D7"/>
<circle cx="15.1261" cy="408.888" r="4" transform="rotate(-22.5211 15.1261 408.888)" fill="#C7D1D7"/>
<circle cx="33.6009" cy="401.227" r="4" transform="rotate(-22.5211 33.6009 401.227)" fill="#C7D1D7"/>
<circle cx="915.698" cy="488.61" r="4" transform="rotate(37.6431 915.698 488.61)" fill="#C7D1D7"/>
<circle cx="931.534" cy="500.825" r="4" transform="rotate(37.6431 931.534 500.825)" fill="#C7D1D7"/>
<circle cx="921.762" cy="513.495" r="4" transform="rotate(37.6431 921.762 513.495)" fill="#C7D1D7"/>
<circle cx="937.599" cy="525.709" r="4" transform="rotate(37.6431 937.599 525.709)" fill="#C7D1D7"/>
<circle cx="953.436" cy="537.924" r="4" transform="rotate(37.6431 953.436 537.924)" fill="#C7D1D7"/>
<circle cx="969.272" cy="550.139" r="4" transform="rotate(37.6431 969.272 550.139)" fill="#C7D1D7"/>
<circle cx="975.337" cy="575.023" r="4" transform="rotate(37.6431 975.337 575.023)" fill="#C7D1D7"/>
<circle cx="959.5" cy="562.808" r="4" transform="rotate(37.6431 959.5 562.808)" fill="#C7D1D7"/>
<circle cx="943.664" cy="550.593" r="4" transform="rotate(37.6431 943.664 550.593)" fill="#C7D1D7"/>
<circle cx="927.827" cy="538.379" r="4" transform="rotate(37.6431 927.827 538.379)" fill="#C7D1D7"/>
<circle cx="911.991" cy="526.164" r="4" transform="rotate(37.6431 911.991 526.164)" fill="#C7D1D7"/>
<circle cx="896.154" cy="513.949" r="4" transform="rotate(37.6431 896.154 513.949)" fill="#C7D1D7"/>
<circle cx="902.219" cy="538.833" r="4" transform="rotate(37.6431 902.219 538.833)" fill="#C7D1D7"/>
<circle cx="918.055" cy="551.048" r="4" transform="rotate(37.6431 918.055 551.048)" fill="#C7D1D7"/>
<circle cx="908.284" cy="563.717" r="4" transform="rotate(37.6431 908.284 563.717)" fill="#C7D1D7"/>
<circle cx="924.12" cy="575.932" r="4" transform="rotate(37.6431 924.12 575.932)" fill="#C7D1D7"/>
<circle cx="933.892" cy="563.263" r="4" transform="rotate(37.6431 933.892 563.263)" fill="#C7D1D7"/>
<circle cx="949.729" cy="575.478" r="4" transform="rotate(37.6431 949.729 575.478)" fill="#C7D1D7"/>
<circle cx="947.371" cy="513.04" r="4" transform="rotate(37.6431 947.371 513.04)" fill="#C7D1D7"/>
<circle cx="963.208" cy="525.255" r="4" transform="rotate(37.6431 963.208 525.255)" fill="#C7D1D7"/>
<circle cx="979.044" cy="537.47" r="4" transform="rotate(37.6431 979.044 537.47)" fill="#C7D1D7"/>
<circle cx="994.881" cy="549.685" r="4" transform="rotate(37.6431 994.881 549.685)" fill="#C7D1D7"/>
<path d="M319.049 179.5C319.049 179.5 318.05 171.5 325.049 167.5C332.049 163.5 338.549 173.546 345.049 169.5C351.549 165.454 349.049 157.174 356.049 153.837C363.049 150.5 367.62 157.674 374.335 153.837C381.049 150 377.549 141 377.549 141" stroke="#C7D1D7" stroke-width="2" stroke-linecap="round"/>
<path d="M775.049 593.5C775.049 593.5 774.05 585.5 781.049 581.5C788.049 577.5 794.549 587.546 801.049 583.5C807.549 579.454 805.049 571.174 812.049 567.837C819.049 564.5 823.62 571.674 830.335 567.837C837.049 564 833.549 555 833.549 555" stroke="#C7D1D7" stroke-width="2" stroke-linecap="round"/>
<path d="M1200.05 265.5C1200.05 265.5 1199.05 257.5 1206.05 253.5C1213.05 249.5 1219.55 259.546 1226.05 255.5C1232.55 251.454 1230.05 243.174 1237.05 239.837C1244.05 236.5 1248.62 243.674 1255.33 239.837C1262.05 236 1258.55 227 1258.55 227" stroke="#C7D1D7" stroke-width="2" stroke-linecap="round"/>
<defs>
<filter id="filter0_i_63_470" x="36" y="0" width="186" height="186" filterUnits="userSpaceOnUse" color-interpolation-filters="sRGB">
<feFlood flood-opacity="0" result="BackgroundImageFix"/>
<feBlend mode="normal" in="SourceGraphic" in2="BackgroundImageFix" result="shape"/>
<feColorMatrix in="SourceAlpha" type="matrix" values="0 0 0 0 0 0 0 0 0 0 0 0 0 0 0 0 0 0 127 0" result="hardAlpha"/>
<feOffset/>
<feGaussianBlur stdDeviation="12"/>
<feComposite in2="hardAlpha" operator="arithmetic" k2="-1" k3="1"/>
<feColorMatrix type="matrix" values="0 0 0 0 0.2 0 0 0 0 0.2 0 0 0 0 0.2 0 0 0 0.32 0"/>
<feBlend mode="normal" in2="shape" result="effect1_innerShadow_63_470"/>
</filter>
<filter id="filter1_i_63_470" x="867" y="16" width="65" height="65" filterUnits="userSpaceOnUse" color-interpolation-filters="sRGB">
<feFlood flood-opacity="0" result="BackgroundImageFix"/>
<feBlend mode="normal" in="SourceGraphic" in2="BackgroundImageFix" result="shape"/>
<feColorMatrix in="SourceAlpha" type="matrix" values="0 0 0 0 0 0 0 0 0 0 0 0 0 0 0 0 0 0 127 0" result="hardAlpha"/>
<feOffset/>
<feGaussianBlur stdDeviation="12"/>
<feComposite in2="hardAlpha" operator="arithmetic" k2="-1" k3="1"/>
<feColorMatrix type="matrix" values="0 0 0 0 0.2 0 0 0 0 0.2 0 0 0 0 0.2 0 0 0 0.32 0"/>
<feBlend mode="normal" in2="shape" result="effect1_innerShadow_63_470"/>
</filter>
<filter id="filter2_i_63_470" x="1092" y="0" width="339" height="339" filterUnits="userSpaceOnUse" color-interpolation-filters="sRGB">
<feFlood flood-opacity="0" result="BackgroundImageFix"/>
<feBlend mode="normal" in="SourceGraphic" in2="BackgroundImageFix" result="shape"/>
<feColorMatrix in="SourceAlpha" type="matrix" values="0 0 0 0 0 0 0 0 0 0 0 0 0 0 0 0 0 0 127 0" result="hardAlpha"/>
<feOffset/>
<feGaussianBlur stdDeviation="12"/>
<feComposite in2="hardAlpha" operator="arithmetic" k2="-1" k3="1"/>
<feColorMatrix type="matrix" values="0 0 0 0 0.2 0 0 0 0 0.2 0 0 0 0 0.2 0 0 0 0.32 0"/>
<feBlend mode="normal" in2="shape" result="effect1_innerShadow_63_470"/>
</filter>
</defs>
</svg>
