<svg width="1688" height="491" viewBox="0 0 1688 491" fill="none" xmlns="http://www.w3.org/2000/svg">
<g filter="url(#filter0_i_63_475)">
<circle cx="640" cy="382" r="93" fill="#FB9951"/>
</g>
<g filter="url(#filter1_i_63_475)">
<circle cx="514.5" cy="138.5" r="32.5" fill="#FB9951"/>
</g>
<g filter="url(#filter2_i_63_475)">
<circle cx="169.5" cy="170.5" r="169.5" fill="#FB9951"/>
</g>
<circle cx="1288.23" cy="149.529" r="4" transform="rotate(-22.5211 1288.23 149.529)" fill="#C7D1D7"/>
<circle cx="1306.7" cy="141.869" r="4" transform="rotate(-22.5211 1306.7 141.869)" fill="#C7D1D7"/>
<circle cx="1312.83" cy="156.649" r="4" transform="rotate(-22.5211 1312.83 156.649)" fill="#C7D1D7"/>
<circle cx="1331.3" cy="148.988" r="4" transform="rotate(-22.5211 1331.3 148.988)" fill="#C7D1D7"/>
<circle cx="1349.78" cy="141.328" r="4" transform="rotate(-22.5211 1349.78 141.328)" fill="#C7D1D7"/>
<circle cx="1368.25" cy="133.667" r="4" transform="rotate(-22.5211 1368.25 133.667)" fill="#C7D1D7"/>
<circle cx="1392.86" cy="140.787" r="4" transform="rotate(-22.5211 1392.86 140.787)" fill="#C7D1D7"/>
<circle cx="1374.38" cy="148.447" r="4" transform="rotate(-22.5211 1374.38 148.447)" fill="#C7D1D7"/>
<circle cx="1355.91" cy="156.108" r="4" transform="rotate(-22.5211 1355.91 156.108)" fill="#C7D1D7"/>
<circle cx="1337.43" cy="163.768" r="4" transform="rotate(-22.5211 1337.43 163.768)" fill="#C7D1D7"/>
<circle cx="1318.96" cy="171.429" r="4" transform="rotate(-22.5211 1318.96 171.429)" fill="#C7D1D7"/>
<circle cx="1300.48" cy="179.089" r="4" transform="rotate(-22.5211 1300.48 179.089)" fill="#C7D1D7"/>
<circle cx="1325.09" cy="186.208" r="4" transform="rotate(-22.5211 1325.09 186.208)" fill="#C7D1D7"/>
<circle cx="1343.56" cy="178.548" r="4" transform="rotate(-22.5211 1343.56 178.548)" fill="#C7D1D7"/>
<circle cx="1349.69" cy="193.328" r="4" transform="rotate(-22.5211 1349.69 193.328)" fill="#C7D1D7"/>
<circle cx="1368.16" cy="185.667" r="4" transform="rotate(-22.5211 1368.16 185.667)" fill="#C7D1D7"/>
<circle cx="1362.04" cy="170.887" r="4" transform="rotate(-22.5211 1362.04 170.887)" fill="#C7D1D7"/>
<circle cx="1380.51" cy="163.227" r="4" transform="rotate(-22.5211 1380.51 163.227)" fill="#C7D1D7"/>
<circle cx="1325.18" cy="134.209" r="4" transform="rotate(-22.5211 1325.18 134.209)" fill="#C7D1D7"/>
<circle cx="1343.65" cy="126.548" r="4" transform="rotate(-22.5211 1343.65 126.548)" fill="#C7D1D7"/>
<circle cx="1362.13" cy="118.888" r="4" transform="rotate(-22.5211 1362.13 118.888)" fill="#C7D1D7"/>
<circle cx="1380.6" cy="111.227" r="4" transform="rotate(-22.5211 1380.6 111.227)" fill="#C7D1D7"/>
<circle cx="1602.7" cy="373.61" r="4" transform="rotate(37.6431 1602.7 373.61)" fill="#C7D1D7"/>
<circle cx="1618.53" cy="385.825" r="4" transform="rotate(37.6431 1618.53 385.825)" fill="#C7D1D7"/>
<circle cx="1608.76" cy="398.494" r="4" transform="rotate(37.6431 1608.76 398.494)" fill="#C7D1D7"/>
<circle cx="1624.6" cy="410.709" r="4" transform="rotate(37.6431 1624.6 410.709)" fill="#C7D1D7"/>
<circle cx="1640.44" cy="422.924" r="4" transform="rotate(37.6431 1640.44 422.924)" fill="#C7D1D7"/>
<circle cx="1656.27" cy="435.139" r="4" transform="rotate(37.6431 1656.27 435.139)" fill="#C7D1D7"/>
<circle cx="1662.34" cy="460.023" r="4" transform="rotate(37.6431 1662.34 460.023)" fill="#C7D1D7"/>
<circle cx="1646.5" cy="447.808" r="4" transform="rotate(37.6431 1646.5 447.808)" fill="#C7D1D7"/>
<circle cx="1630.66" cy="435.593" r="4" transform="rotate(37.6431 1630.66 435.593)" fill="#C7D1D7"/>
<circle cx="1614.83" cy="423.378" r="4" transform="rotate(37.6431 1614.83 423.378)" fill="#C7D1D7"/>
<circle cx="1598.99" cy="411.164" r="4" transform="rotate(37.6431 1598.99 411.164)" fill="#C7D1D7"/>
<circle cx="1583.15" cy="398.949" r="4" transform="rotate(37.6431 1583.15 398.949)" fill="#C7D1D7"/>
<circle cx="1589.22" cy="423.833" r="4" transform="rotate(37.6431 1589.22 423.833)" fill="#C7D1D7"/>
<circle cx="1605.06" cy="436.048" r="4" transform="rotate(37.6431 1605.06 436.048)" fill="#C7D1D7"/>
<circle cx="1595.28" cy="448.717" r="4" transform="rotate(37.6431 1595.28 448.717)" fill="#C7D1D7"/>
<circle cx="1611.12" cy="460.932" r="4" transform="rotate(37.6431 1611.12 460.932)" fill="#C7D1D7"/>
<circle cx="1620.89" cy="448.263" r="4" transform="rotate(37.6431 1620.89 448.263)" fill="#C7D1D7"/>
<circle cx="1636.73" cy="460.477" r="4" transform="rotate(37.6431 1636.73 460.477)" fill="#C7D1D7"/>
<circle cx="1634.37" cy="398.04" r="4" transform="rotate(37.6431 1634.37 398.04)" fill="#C7D1D7"/>
<circle cx="1650.21" cy="410.255" r="4" transform="rotate(37.6431 1650.21 410.255)" fill="#C7D1D7"/>
<circle cx="1666.04" cy="422.47" r="4" transform="rotate(37.6431 1666.04 422.47)" fill="#C7D1D7"/>
<circle cx="1681.88" cy="434.684" r="4" transform="rotate(37.6431 1681.88 434.684)" fill="#C7D1D7"/>
<path d="M1387.05 284.5C1387.05 284.5 1386.05 276.5 1393.05 272.5C1400.05 268.5 1406.55 278.546 1413.05 274.5C1419.55 270.454 1417.05 262.174 1424.05 258.837C1431.05 255.5 1435.62 262.674 1442.33 258.837C1449.05 255 1445.55 246 1445.55 246" stroke="#C7D1D7" stroke-width="2" stroke-linecap="round"/>
<path d="M826.049 452.5C826.049 452.5 825.05 444.5 832.049 440.5C839.049 436.5 845.549 446.546 852.049 442.5C858.549 438.454 856.049 430.174 863.049 426.837C870.049 423.5 874.62 430.674 881.335 426.837C888.049 423 884.549 414 884.549 414" stroke="#C7D1D7" stroke-width="2" stroke-linecap="round"/>
<path d="M369.049 39.5C369.049 39.5 368.05 31.5 375.049 27.5C382.049 23.5 388.549 33.5463 395.049 29.5C401.549 25.4537 399.049 17.1742 406.049 13.8371C413.049 10.5 417.62 17.6742 424.335 13.8371C431.049 10 427.549 1 427.549 1" stroke="#C7D1D7" stroke-width="2" stroke-linecap="round"/>
<defs>
<filter id="filter0_i_63_475" x="547" y="289" width="186" height="186" filterUnits="userSpaceOnUse" color-interpolation-filters="sRGB">
<feFlood flood-opacity="0" result="BackgroundImageFix"/>
<feBlend mode="normal" in="SourceGraphic" in2="BackgroundImageFix" result="shape"/>
<feColorMatrix in="SourceAlpha" type="matrix" values="0 0 0 0 0 0 0 0 0 0 0 0 0 0 0 0 0 0 127 0" result="hardAlpha"/>
<feOffset/>
<feGaussianBlur stdDeviation="12"/>
<feComposite in2="hardAlpha" operator="arithmetic" k2="-1" k3="1"/>
<feColorMatrix type="matrix" values="0 0 0 0 0.2 0 0 0 0 0.2 0 0 0 0 0.2 0 0 0 0.32 0"/>
<feBlend mode="normal" in2="shape" result="effect1_innerShadow_63_475"/>
</filter>
<filter id="filter1_i_63_475" x="482" y="106" width="65" height="65" filterUnits="userSpaceOnUse" color-interpolation-filters="sRGB">
<feFlood flood-opacity="0" result="BackgroundImageFix"/>
<feBlend mode="normal" in="SourceGraphic" in2="BackgroundImageFix" result="shape"/>
<feColorMatrix in="SourceAlpha" type="matrix" values="0 0 0 0 0 0 0 0 0 0 0 0 0 0 0 0 0 0 127 0" result="hardAlpha"/>
<feOffset/>
<feGaussianBlur stdDeviation="12"/>
<feComposite in2="hardAlpha" operator="arithmetic" k2="-1" k3="1"/>
<feColorMatrix type="matrix" values="0 0 0 0 0.2 0 0 0 0 0.2 0 0 0 0 0.2 0 0 0 0.32 0"/>
<feBlend mode="normal" in2="shape" result="effect1_innerShadow_63_475"/>
</filter>
<filter id="filter2_i_63_475" x="0" y="1" width="339" height="339" filterUnits="userSpaceOnUse" color-interpolation-filters="sRGB">
<feFlood flood-opacity="0" result="BackgroundImageFix"/>
<feBlend mode="normal" in="SourceGraphic" in2="BackgroundImageFix" result="shape"/>
<feColorMatrix in="SourceAlpha" type="matrix" values="0 0 0 0 0 0 0 0 0 0 0 0 0 0 0 0 0 0 127 0" result="hardAlpha"/>
<feOffset/>
<feGaussianBlur stdDeviation="12"/>
<feComposite in2="hardAlpha" operator="arithmetic" k2="-1" k3="1"/>
<feColorMatrix type="matrix" values="0 0 0 0 0.2 0 0 0 0 0.2 0 0 0 0 0.2 0 0 0 0.32 0"/>
<feBlend mode="normal" in2="shape" result="effect1_innerShadow_63_475"/>
</filter>
</defs>
</svg>
