<svg width="40" height="40" viewBox="0 0 40 40" fill="none" xmlns="http://www.w3.org/2000/svg">
<rect width="40" height="40" rx="20" fill="#5DCAEC"/>
<path fill-rule="evenodd" clip-rule="evenodd" d="M24.1583 16.2329C24.1583 18.5825 22.2851 20.4666 19.949 20.4666C17.6129 20.4666 15.7397 18.5825 15.7397 16.2329C15.7397 13.8823 17.6129 12 19.949 12C22.2851 12 24.1583 13.8823 24.1583 16.2329ZM19.949 28C16.5178 28 13.5881 27.456 13.5881 25.2802C13.5881 23.1034 16.499 22.5396 19.949 22.5396C23.3802 22.5396 26.31 23.0836 26.31 25.2604C26.31 27.4362 23.399 28 19.949 28ZM25.9571 16.3092C25.9571 17.507 25.5998 18.6229 24.973 19.5505C24.9086 19.646 24.9659 19.7748 25.0796 19.7946C25.2363 19.8216 25.3984 19.8369 25.5631 19.8414C27.2062 19.8846 28.6809 18.821 29.0883 17.2197C29.6918 14.8412 27.9198 12.7059 25.6634 12.7059C25.4181 12.7059 25.1835 12.732 24.9551 12.7788C24.9238 12.786 24.8907 12.8005 24.8728 12.8284C24.8513 12.8626 24.8674 12.9085 24.8889 12.9383C25.5667 13.8938 25.9571 15.0592 25.9571 16.3092ZM28.6782 21.5126C29.7823 21.7296 30.5084 22.1727 30.8093 22.8166C31.0636 23.3453 31.0636 23.9586 30.8093 24.4864C30.349 25.4851 28.8654 25.8058 28.2887 25.8886C28.1696 25.9066 28.0738 25.8031 28.0864 25.6833C28.3809 22.9157 26.0377 21.6035 25.4315 21.3018C25.4055 21.2883 25.4002 21.2676 25.4028 21.255C25.4046 21.246 25.4154 21.2316 25.4351 21.2289C26.7468 21.2046 28.1571 21.3847 28.6782 21.5126ZM14.4371 19.8413C14.6019 19.8368 14.763 19.8224 14.9206 19.7945C15.0343 19.7747 15.0916 19.6459 15.0272 19.5504C14.4004 18.6228 14.0431 17.5069 14.0431 16.3091C14.0431 15.0591 14.4335 13.8937 15.1113 12.9382C15.1328 12.9084 15.1481 12.8625 15.1275 12.8283C15.1096 12.8013 15.0755 12.786 15.0451 12.7788C14.8159 12.7319 14.5813 12.7058 14.3359 12.7058C12.0795 12.7058 10.3075 14.8411 10.9119 17.2196C11.3193 18.8209 12.794 19.8845 14.4371 19.8413ZM14.5969 21.2545C14.5996 21.268 14.5943 21.2878 14.5692 21.3022C13.9621 21.6039 11.6188 22.9161 11.9134 25.6827C11.926 25.8034 11.831 25.9061 11.712 25.889C11.1353 25.8061 9.65163 25.4855 9.19139 24.4867C8.9362 23.9581 8.9362 23.3457 9.19139 22.817C9.49225 22.1731 10.2175 21.73 11.3216 21.512C11.8436 21.385 13.2529 21.2049 14.5656 21.2292C14.5853 21.2319 14.5951 21.2464 14.5969 21.2545Z" fill="white"/>
</svg>
