<svg width="40" height="40" viewBox="0 0 40 40" fill="none" xmlns="http://www.w3.org/2000/svg">
<rect width="40" height="40" rx="20" fill="#FB9951"/>
<path fill-rule="evenodd" clip-rule="evenodd" d="M15.81 10H24.191C27.28 10 29 11.78 29 14.83V25.16C29 28.26 27.28 30 24.191 30H15.81C12.77 30 11 28.26 11 25.16V14.83C11 11.78 12.77 10 15.81 10ZM16.08 14.66V14.65H19.069C19.5 14.65 19.85 15 19.85 15.429C19.85 15.87 19.5 16.22 19.069 16.22H16.08C15.649 16.22 15.3 15.87 15.3 15.44C15.3 15.01 15.649 14.66 16.08 14.66ZM16.08 20.74H23.92C24.35 20.74 24.7 20.39 24.7 19.96C24.7 19.53 24.35 19.179 23.92 19.179H16.08C15.649 19.179 15.3 19.53 15.3 19.96C15.3 20.39 15.649 20.74 16.08 20.74ZM16.08 25.31H23.92C24.319 25.27 24.62 24.929 24.62 24.53C24.62 24.12 24.319 23.78 23.92 23.74H16.08C15.78 23.71 15.49 23.85 15.33 24.11C15.17 24.36 15.17 24.69 15.33 24.95C15.49 25.2 15.78 25.35 16.08 25.31Z" fill="white"/>
</svg>
