<svg width="40" height="40" viewBox="0 0 40 40" fill="none" xmlns="http://www.w3.org/2000/svg">
<rect width="40" height="40" rx="20" fill="#615EF4"/>
<path d="M25.9185 22.32C25.6595 22.571 25.5405 22.934 25.5995 23.29L26.4885 28.21C26.5635 28.627 26.3875 29.049 26.0385 29.29C25.6965 29.54 25.2415 29.57 24.8685 29.37L20.4395 27.06C20.2855 26.978 20.1145 26.934 19.9395 26.929H19.6685C19.5745 26.943 19.4825 26.973 19.3985 27.019L14.9685 29.34C14.7495 29.45 14.5015 29.489 14.2585 29.45C13.6665 29.338 13.2715 28.774 13.3685 28.179L14.2585 23.259C14.3175 22.9 14.1985 22.535 13.9395 22.28L10.3285 18.78C10.0265 18.487 9.92151 18.047 10.0595 17.65C10.1935 17.254 10.5355 16.965 10.9485 16.9L15.9185 16.179C16.2965 16.14 16.6285 15.91 16.7985 15.57L18.9885 11.08C19.0405 10.98 19.1075 10.888 19.1885 10.81L19.2785 10.74C19.3255 10.688 19.3795 10.645 19.4395 10.61L19.5485 10.57L19.7185 10.5H20.1395C20.5155 10.539 20.8465 10.764 21.0195 11.1L23.2385 15.57C23.3985 15.897 23.7095 16.124 24.0685 16.179L29.0385 16.9C29.4585 16.96 29.8095 17.25 29.9485 17.65C30.0795 18.051 29.9665 18.491 29.6585 18.78L25.9185 22.32Z" fill="white"/>
</svg>
