<svg width="1098" height="623" viewBox="0 0 1098 623" fill="none" xmlns="http://www.w3.org/2000/svg">
<path d="M618.049 547.5C618.049 547.5 617.05 539.5 624.049 535.5C631.049 531.5 637.549 541.546 644.049 537.5C650.549 533.454 648.049 525.174 655.049 521.837C662.049 518.5 666.62 525.674 673.335 521.837C680.049 518 676.549 509 676.549 509" stroke="#C7D1D7" stroke-width="2" stroke-linecap="round"/>
<path d="M1.04935 94.5C1.04935 94.5 0.0496063 86.5 7.0495 82.5C14.0494 78.5 20.5494 88.5463 27.0494 84.5C33.5494 80.4537 31.0494 72.1742 38.0494 68.8371C45.0494 65.5 49.6201 72.6742 56.3348 68.8371C63.0494 65 59.5494 56 59.5494 56" stroke="#C7D1D7" stroke-width="2" stroke-linecap="round"/>
<path d="M13.0494 488.5C13.0494 488.5 12.0496 480.5 19.0495 476.5C26.0494 472.5 32.5494 482.546 39.0494 478.5C45.5494 474.454 43.0494 466.174 50.0494 462.837C57.0494 459.5 61.6201 466.674 68.3348 462.837C75.0494 459 71.5494 450 71.5494 450" stroke="#C7D1D7" stroke-width="2" stroke-linecap="round"/>
<circle cx="126" cy="555" r="4" fill="#C7D1D7"/>
<circle cx="146" cy="555" r="4" fill="#C7D1D7"/>
<circle cx="146" cy="571" r="4" fill="#C7D1D7"/>
<circle cx="166" cy="571" r="4" fill="#C7D1D7"/>
<circle cx="186" cy="571" r="4" fill="#C7D1D7"/>
<circle cx="206" cy="571" r="4" fill="#C7D1D7"/>
<circle cx="226" cy="587" r="4" fill="#C7D1D7"/>
<circle cx="206" cy="587" r="4" fill="#C7D1D7"/>
<circle cx="186" cy="587" r="4" fill="#C7D1D7"/>
<circle cx="166" cy="587" r="4" fill="#C7D1D7"/>
<circle cx="146" cy="587" r="4" fill="#C7D1D7"/>
<circle cx="126" cy="587" r="4" fill="#C7D1D7"/>
<circle cx="146" cy="603" r="4" fill="#C7D1D7"/>
<circle cx="166" cy="603" r="4" fill="#C7D1D7"/>
<circle cx="166" cy="619" r="4" fill="#C7D1D7"/>
<circle cx="186" cy="619" r="4" fill="#C7D1D7"/>
<circle cx="186" cy="603" r="4" fill="#C7D1D7"/>
<circle cx="206" cy="603" r="4" fill="#C7D1D7"/>
<circle cx="166" cy="555" r="4" fill="#C7D1D7"/>
<circle cx="186" cy="555" r="4" fill="#C7D1D7"/>
<circle cx="206" cy="555" r="4" fill="#C7D1D7"/>
<circle cx="226" cy="555" r="4" fill="#C7D1D7"/>
<circle cx="380" cy="4" r="4" fill="#C7D1D7"/>
<circle cx="400" cy="4" r="4" fill="#C7D1D7"/>
<circle cx="400" cy="20" r="4" fill="#C7D1D7"/>
<circle cx="420" cy="20" r="4" fill="#C7D1D7"/>
<circle cx="440" cy="20" r="4" fill="#C7D1D7"/>
<circle cx="460" cy="20" r="4" fill="#C7D1D7"/>
<circle cx="480" cy="36" r="4" fill="#C7D1D7"/>
<circle cx="460" cy="36" r="4" fill="#C7D1D7"/>
<circle cx="440" cy="36" r="4" fill="#C7D1D7"/>
<circle cx="420" cy="36" r="4" fill="#C7D1D7"/>
<circle cx="400" cy="36" r="4" fill="#C7D1D7"/>
<circle cx="380" cy="36" r="4" fill="#C7D1D7"/>
<circle cx="400" cy="52" r="4" fill="#C7D1D7"/>
<circle cx="420" cy="52" r="4" fill="#C7D1D7"/>
<circle cx="420" cy="68" r="4" fill="#C7D1D7"/>
<circle cx="440" cy="68" r="4" fill="#C7D1D7"/>
<circle cx="440" cy="52" r="4" fill="#C7D1D7"/>
<circle cx="460" cy="52" r="4" fill="#C7D1D7"/>
<circle cx="420" cy="4" r="4" fill="#C7D1D7"/>
<circle cx="440" cy="4" r="4" fill="#C7D1D7"/>
<circle cx="460" cy="4" r="4" fill="#C7D1D7"/>
<circle cx="480" cy="4" r="4" fill="#C7D1D7"/>
<circle cx="994" cy="236" r="4" fill="#C7D1D7"/>
<circle cx="1014" cy="236" r="4" fill="#C7D1D7"/>
<circle cx="1014" cy="252" r="4" fill="#C7D1D7"/>
<circle cx="1034" cy="252" r="4" fill="#C7D1D7"/>
<circle cx="1054" cy="252" r="4" fill="#C7D1D7"/>
<circle cx="1074" cy="252" r="4" fill="#C7D1D7"/>
<circle cx="1094" cy="268" r="4" fill="#C7D1D7"/>
<circle cx="1074" cy="268" r="4" fill="#C7D1D7"/>
<circle cx="1054" cy="268" r="4" fill="#C7D1D7"/>
<circle cx="1034" cy="268" r="4" fill="#C7D1D7"/>
<circle cx="1014" cy="268" r="4" fill="#C7D1D7"/>
<circle cx="994" cy="268" r="4" fill="#C7D1D7"/>
<circle cx="1014" cy="284" r="4" fill="#C7D1D7"/>
<circle cx="1034" cy="284" r="4" fill="#C7D1D7"/>
<circle cx="1034" cy="300" r="4" fill="#C7D1D7"/>
<circle cx="1054" cy="300" r="4" fill="#C7D1D7"/>
<circle cx="1054" cy="284" r="4" fill="#C7D1D7"/>
<circle cx="1074" cy="284" r="4" fill="#C7D1D7"/>
<circle cx="1034" cy="236" r="4" fill="#C7D1D7"/>
<circle cx="1054" cy="236" r="4" fill="#C7D1D7"/>
<circle cx="1074" cy="236" r="4" fill="#C7D1D7"/>
<circle cx="1094" cy="236" r="4" fill="#C7D1D7"/>
</svg>
