<svg width="1098" height="639" viewBox="0 0 1098 639" fill="none" xmlns="http://www.w3.org/2000/svg">
<path d="M618.049 562.605C618.049 562.605 617.05 554.605 624.049 550.605C631.049 546.605 637.549 556.652 644.049 552.605C650.549 548.559 648.049 540.28 655.049 536.943C662.049 533.605 666.62 540.78 673.335 536.943C680.049 533.105 676.549 524.105 676.549 524.105" stroke="#C7D1D7" stroke-width="2" stroke-linecap="round"/>
<path d="M1.04935 109.605C1.04935 109.605 0.0496063 101.605 7.0495 97.6055C14.0494 93.6055 20.5494 103.652 27.0494 99.6055C33.5494 95.5592 31.0494 87.2796 38.0494 83.9425C45.0494 80.6055 49.6201 87.7796 56.3348 83.9425C63.0494 80.1055 59.5494 71.1055 59.5494 71.1055" stroke="#C7D1D7" stroke-width="2" stroke-linecap="round"/>
<path d="M13.0494 503.605C13.0494 503.605 12.0496 495.605 19.0495 491.605C26.0494 487.605 32.5494 497.652 39.0494 493.605C45.5494 489.559 43.0494 481.28 50.0494 477.943C57.0494 474.605 61.6201 481.78 68.3348 477.943C75.0494 474.105 71.5494 465.105 71.5494 465.105" stroke="#C7D1D7" stroke-width="2" stroke-linecap="round"/>
<circle cx="126" cy="570.105" r="4" fill="#C7D1D7"/>
<circle cx="146" cy="570.105" r="4" fill="#C7D1D7"/>
<circle cx="146" cy="586.105" r="4" fill="#C7D1D7"/>
<circle cx="166" cy="586.105" r="4" fill="#C7D1D7"/>
<circle cx="186" cy="586.105" r="4" fill="#C7D1D7"/>
<circle cx="206" cy="586.105" r="4" fill="#C7D1D7"/>
<circle cx="226" cy="602.105" r="4" fill="#C7D1D7"/>
<circle cx="206" cy="602.105" r="4" fill="#C7D1D7"/>
<circle cx="186" cy="602.105" r="4" fill="#C7D1D7"/>
<circle cx="166" cy="602.105" r="4" fill="#C7D1D7"/>
<circle cx="146" cy="602.105" r="4" fill="#C7D1D7"/>
<circle cx="126" cy="602.105" r="4" fill="#C7D1D7"/>
<circle cx="146" cy="618.105" r="4" fill="#C7D1D7"/>
<circle cx="166" cy="618.105" r="4" fill="#C7D1D7"/>
<circle cx="166" cy="634.105" r="4" fill="#C7D1D7"/>
<circle cx="186" cy="634.105" r="4" fill="#C7D1D7"/>
<circle cx="186" cy="618.105" r="4" fill="#C7D1D7"/>
<circle cx="206" cy="618.105" r="4" fill="#C7D1D7"/>
<circle cx="166" cy="570.105" r="4" fill="#C7D1D7"/>
<circle cx="186" cy="570.105" r="4" fill="#C7D1D7"/>
<circle cx="206" cy="570.105" r="4" fill="#C7D1D7"/>
<circle cx="226" cy="570.105" r="4" fill="#C7D1D7"/>
<circle cx="531.337" cy="4.85626" r="4" transform="rotate(14.1457 531.337 4.85626)" fill="#C7D1D7"/>
<circle cx="550.73" cy="9.74396" r="4" transform="rotate(14.1457 550.73 9.74396)" fill="#C7D1D7"/>
<circle cx="546.82" cy="25.2589" r="4" transform="rotate(14.1457 546.82 25.2589)" fill="#C7D1D7"/>
<circle cx="566.213" cy="30.1465" r="4" transform="rotate(14.1457 566.213 30.1465)" fill="#C7D1D7"/>
<circle cx="585.607" cy="35.0345" r="4" transform="rotate(14.1457 585.607 35.0345)" fill="#C7D1D7"/>
<circle cx="605.001" cy="39.9222" r="4" transform="rotate(14.1457 605.001 39.9222)" fill="#C7D1D7"/>
<circle cx="620.484" cy="60.3248" r="4" transform="rotate(14.1457 620.484 60.3248)" fill="#C7D1D7"/>
<circle cx="601.09" cy="55.4371" r="4" transform="rotate(14.1457 601.09 55.4371)" fill="#C7D1D7"/>
<circle cx="581.697" cy="50.5491" r="4" transform="rotate(14.1457 581.697 50.5491)" fill="#C7D1D7"/>
<circle cx="562.303" cy="45.6614" r="4" transform="rotate(14.1457 562.303 45.6614)" fill="#C7D1D7"/>
<circle cx="542.91" cy="40.7737" r="4" transform="rotate(14.1457 542.91 40.7737)" fill="#C7D1D7"/>
<circle cx="523.516" cy="35.886" r="4" transform="rotate(14.1457 523.516 35.886)" fill="#C7D1D7"/>
<circle cx="538.999" cy="56.2886" r="4" transform="rotate(14.1457 538.999 56.2886)" fill="#C7D1D7"/>
<circle cx="558.393" cy="61.1763" r="4" transform="rotate(14.1457 558.393 61.1763)" fill="#C7D1D7"/>
<circle cx="554.483" cy="76.6912" r="4" transform="rotate(14.1457 554.483 76.6912)" fill="#C7D1D7"/>
<circle cx="573.876" cy="81.5789" r="4" transform="rotate(14.1457 573.876 81.5789)" fill="#C7D1D7"/>
<circle cx="577.787" cy="66.064" r="4" transform="rotate(14.1457 577.787 66.064)" fill="#C7D1D7"/>
<circle cx="597.18" cy="70.952" r="4" transform="rotate(14.1457 597.18 70.952)" fill="#C7D1D7"/>
<circle cx="570.124" cy="14.6319" r="4" transform="rotate(14.1457 570.124 14.6319)" fill="#C7D1D7"/>
<circle cx="589.517" cy="19.5196" r="4" transform="rotate(14.1457 589.517 19.5196)" fill="#C7D1D7"/>
<circle cx="608.911" cy="24.4073" r="4" transform="rotate(14.1457 608.911 24.4073)" fill="#C7D1D7"/>
<circle cx="628.304" cy="29.2952" r="4" transform="rotate(14.1457 628.304 29.2952)" fill="#C7D1D7"/>
<circle cx="994" cy="251.105" r="4" fill="#C7D1D7"/>
<circle cx="1014" cy="251.105" r="4" fill="#C7D1D7"/>
<circle cx="1014" cy="267.105" r="4" fill="#C7D1D7"/>
<circle cx="1034" cy="267.105" r="4" fill="#C7D1D7"/>
<circle cx="1054" cy="267.105" r="4" fill="#C7D1D7"/>
<circle cx="1074" cy="267.105" r="4" fill="#C7D1D7"/>
<circle cx="1094" cy="283.105" r="4" fill="#C7D1D7"/>
<circle cx="1074" cy="283.105" r="4" fill="#C7D1D7"/>
<circle cx="1054" cy="283.105" r="4" fill="#C7D1D7"/>
<circle cx="1034" cy="283.105" r="4" fill="#C7D1D7"/>
<circle cx="1014" cy="283.105" r="4" fill="#C7D1D7"/>
<circle cx="994" cy="283.105" r="4" fill="#C7D1D7"/>
<circle cx="1014" cy="299.105" r="4" fill="#C7D1D7"/>
<circle cx="1034" cy="299.105" r="4" fill="#C7D1D7"/>
<circle cx="1034" cy="315.105" r="4" fill="#C7D1D7"/>
<circle cx="1054" cy="315.105" r="4" fill="#C7D1D7"/>
<circle cx="1054" cy="299.105" r="4" fill="#C7D1D7"/>
<circle cx="1074" cy="299.105" r="4" fill="#C7D1D7"/>
<circle cx="1034" cy="251.105" r="4" fill="#C7D1D7"/>
<circle cx="1054" cy="251.105" r="4" fill="#C7D1D7"/>
<circle cx="1074" cy="251.105" r="4" fill="#C7D1D7"/>
<circle cx="1094" cy="251.105" r="4" fill="#C7D1D7"/>
</svg>
