<svg width="140" height="28" viewBox="0 0 140 28" fill="none" xmlns="http://www.w3.org/2000/svg">
<path d="M13.68 21.5V17.5H4.656V0.155998H0.112V21.5H13.68ZM23.5903 21.884C28.7103 21.884 31.7823 18.172 31.7823 13.756C31.7823 9.372 28.7103 5.66 23.5903 5.66C18.5023 5.66 15.4303 9.372 15.4303 13.756C15.4303 18.172 18.5023 21.884 23.5903 21.884ZM23.5903 18.268C21.0623 18.268 19.6543 16.188 19.6543 13.756C19.6543 11.356 21.0623 9.276 23.5903 9.276C26.1183 9.276 27.5583 11.356 27.5583 13.756C27.5583 16.188 26.1183 18.268 23.5903 18.268ZM41.1333 27.772C44.9413 27.772 49.4853 26.332 49.4853 20.444V6.044H45.3893V8.028C44.1413 6.46 42.4773 5.66 40.6213 5.66C36.7173 5.66 33.8053 8.476 33.8053 13.532C33.8053 18.684 36.7493 21.404 40.6213 21.404C42.5093 21.404 44.1733 20.508 45.3893 18.972V20.54C45.3893 23.58 43.0853 24.444 41.1333 24.444C39.1813 24.444 37.5493 23.9 36.3013 22.524L34.4773 25.468C36.4293 27.164 38.4773 27.772 41.1333 27.772ZM41.9013 17.788C39.5973 17.788 37.9973 16.188 37.9973 13.532C37.9973 10.876 39.5973 9.276 41.9013 9.276C43.2453 9.276 44.7173 10.012 45.3893 11.036V16.028C44.7173 17.02 43.2453 17.788 41.9013 17.788ZM60.684 21.884C65.804 21.884 68.876 18.172 68.876 13.756C68.876 9.372 65.804 5.66 60.684 5.66C55.596 5.66 52.524 9.372 52.524 13.756C52.524 18.172 55.596 21.884 60.684 21.884ZM60.684 18.268C58.156 18.268 56.748 16.188 56.748 13.756C56.748 11.356 58.156 9.276 60.684 9.276C63.212 9.276 64.652 11.356 64.652 13.756C64.652 16.188 63.212 18.268 60.684 18.268ZM77.075 21.884C78.771 21.884 79.859 21.436 80.467 20.892L79.603 17.82C79.379 18.044 78.803 18.268 78.195 18.268C77.299 18.268 76.787 17.532 76.787 16.572V9.596H79.923V6.044H76.787V1.82H72.691V6.044H70.131V9.596H72.691V17.66C72.691 20.412 74.227 21.884 77.075 21.884ZM82.1595 27.548C82.6715 27.676 83.6955 27.772 84.1755 27.772C86.8315 27.708 88.8795 26.94 90.0315 24.028L97.2955 6.044H92.9115L88.8795 16.796L84.8475 6.044H80.4955L86.7675 21.724L86.1915 23.036C85.8075 23.868 85.1035 24.156 84.0475 24.156C83.6635 24.156 83.1195 24.06 82.7675 23.9L82.1595 27.548ZM107.942 21.884C111.91 21.884 114.79 18.908 114.79 13.756C114.79 8.604 111.91 5.66 107.942 5.66C106.054 5.66 104.358 6.492 103.174 7.996V6.044H99.1098V27.388H103.174V19.516C104.422 21.116 106.118 21.884 107.942 21.884ZM106.662 18.268C105.35 18.268 103.846 17.468 103.174 16.508V11.036C103.846 10.044 105.35 9.276 106.662 9.276C108.998 9.276 110.566 11.1 110.566 13.756C110.566 16.444 108.998 18.268 106.662 18.268ZM125.03 21.884C127.43 21.884 129.862 21.148 131.398 19.74L129.606 17.116C128.614 18.076 126.79 18.652 125.478 18.652C122.854 18.652 121.286 17.02 121.03 15.068H132.518V14.172C132.518 9.116 129.382 5.66 124.774 5.66C120.07 5.66 116.774 9.276 116.774 13.756C116.774 18.716 120.326 21.884 125.03 21.884ZM128.582 12.316H120.966C121.158 10.78 122.246 8.892 124.774 8.892C127.462 8.892 128.486 10.844 128.582 12.316ZM137.409 21.852C138.817 21.852 140.001 20.668 140.001 19.26C140.001 17.852 138.817 16.668 137.409 16.668C136.001 16.668 134.817 17.852 134.817 19.26C134.817 20.668 136.001 21.852 137.409 21.852Z" fill="white"/>
</svg>
