<svg width="146" height="94" viewBox="0 0 146 94" fill="none" xmlns="http://www.w3.org/2000/svg">
<rect x="37.5" width="15.0215" height="15.0215" fill="#F65843"/>
<rect x="67.543" width="13.2189" height="13.2189" fill="#F7D11E"/>
<rect x="94.5815" width="12.9185" height="13.2189" fill="#F65843"/>
<rect x="84.9678" y="19.5278" width="9.61373" height="13.5193" fill="#3FB5BF"/>
<rect x="103.594" y="24.0344" width="3.90558" height="7.81116" fill="#F7D11E"/>
<rect x="94.5815" y="40.8584" width="12.9185" height="12.0172" fill="#F7D11E"/>
<rect x="61.8348" y="27.9399" width="16.5236" height="23.4335" fill="#F65843"/>
<rect x="37.5" y="22.8325" width="17.1245" height="21.3305" fill="#F7D11E"/>
<path d="M8.59648 81.7755H11.3965V84.6355L9.07648 85.9755H3.41648L1.09648 84.6355V73.1155L3.41648 71.7755H9.07648L11.3965 73.1155V75.9755H8.59648V74.1755H3.89648V83.5755H8.59648V81.7755ZM25.8926 84.6355L23.5726 85.9755H17.3126L14.9926 84.6355V73.1155L17.3126 71.7755H23.5726L25.8926 73.1155V84.6355ZM17.7926 74.1755V83.5755H23.0926V74.1755H17.7926ZM40.5895 84.5355L38.2695 85.8755H29.6895V71.8755H38.2695L40.5895 73.2155V84.5355ZM32.4895 74.2755V83.4755H37.7895V74.2755H32.4895ZM47.1863 79.8755V83.4755H52.7663V85.8755H44.3863V71.8755H52.7663V74.2755H47.1863V77.4755H51.5663V79.8755H47.1863ZM58.5629 79.8755V85.8755H55.7629V71.8755H64.3429V74.2755H58.5629V77.4755H63.1429V79.8755H58.5629ZM73.4241 71.8755L78.4241 85.8755H75.6641L74.6041 82.8555H69.3641L68.3041 85.8755H65.5441L70.5441 71.8755H73.4241ZM71.9641 75.3955L70.2041 80.4555H73.7441L72.0041 75.3955H71.9641ZM88.3207 81.7755H91.1207V84.6355L88.8007 85.9755H83.1407L80.8207 84.6355V73.1155L83.1407 71.7755H88.8007L91.1207 73.1155V75.9755H88.3207V74.1755H83.6207V83.5755H88.3207V81.7755ZM100.097 74.2755V85.8755H97.2968V74.2755H93.5168V71.8755H103.877V74.2755H100.097ZM117.384 84.6355L115.064 85.9755H108.804L106.484 84.6355V73.1155L108.804 71.7755H115.064L117.384 73.1155V84.6355ZM109.284 74.1755V83.5755H114.584V74.1755H109.284ZM131.801 85.8755H128.721L125.721 80.5955H123.981V85.8755H121.181V71.8755H128.761L131.081 73.2155V79.2555L128.761 80.5955L131.801 85.8755ZM123.981 74.2755V78.1955H128.281V74.2755H123.981ZM137.982 85.8755V79.8955L133.482 71.8755H136.522L139.362 77.1155H139.402L142.262 71.8755H145.302L140.782 79.9155V85.8755H137.982Z" fill="white"/>
</svg>
