<svg width="100" height="100" viewBox="0 0 100 100" fill="none" xmlns="http://www.w3.org/2000/svg">
<path fill-rule="evenodd" clip-rule="evenodd" d="M8.33331 50.0241C8.33331 27.026 27.0351 8.33331 50 8.33331C72.9649 8.33331 91.6666 27.026 91.6666 50.0241C91.6666 72.9739 72.9649 91.6666 50 91.6666C27.0351 91.6666 8.33331 72.9739 8.33331 50.0241ZM65.2831 54.241C65.7255 53.7988 66.2886 53.1154 66.4092 52.9546C67.0527 52.1104 67.3745 51.0653 67.3745 50.0241C67.3745 48.8543 67.0125 47.7689 66.3288 46.8845C66.2728 46.8285 66.163 46.7091 66.02 46.5534C65.7525 46.2622 65.3685 45.8443 65.0016 45.4775C61.7036 41.94 53.0968 36.1513 48.5923 34.3825C47.9086 34.1051 46.1792 33.4981 45.2542 33.4579C44.3694 33.4579 43.5248 33.6589 42.7204 34.0609C41.7149 34.6237 40.9105 35.5081 40.4681 36.5533C40.1866 37.2769 39.7442 39.4476 39.7442 39.4878C39.3018 41.8596 39.0605 45.7187 39.0605 49.9799C39.0605 54.044 39.3018 57.7384 39.6637 60.1503C39.6737 60.1603 39.7083 60.3328 39.7621 60.6008C39.9254 61.4155 40.2658 63.1127 40.629 63.8085C41.5138 65.4968 43.2432 66.542 45.0933 66.542H45.2542C46.4607 66.5018 48.9945 65.4566 48.9945 65.4164C53.2577 63.6477 61.6634 58.1404 65.0418 54.4822L65.2831 54.241Z" fill="#EA455F"/>
</svg>
