<?xml version="1.0" encoding="utf-8"?>
<!-- Generator: Adobe Illustrator 16.0.0, SVG Export Plug-In . SVG Version: 6.00 Build 0)  -->
<!DOCTYPE svg PUBLIC "-//W3C//DTD SVG 1.0//EN" "http://www.w3.org/TR/2001/REC-SVG-20010904/DTD/svg10.dtd">
<svg version="1.0" id="Layer_1" xmlns="http://www.w3.org/2000/svg" xmlns:xlink="http://www.w3.org/1999/xlink" x="0px" y="0px"
	 width="156px" height="50px" viewBox="0 0 156 50" enable-background="new 0 0 156 50" xml:space="preserve">
<g>
	<linearGradient id="SVGID_1_" gradientUnits="userSpaceOnUse" x1="16.0938" y1="-0.2393" x2="18.9759" y2="17.958">
		<stop  offset="0" style="stop-color:#9C9E9E"/>
		<stop  offset="1" style="stop-color:#BEC0C1"/>
	</linearGradient>
	<path fill-rule="evenodd" clip-rule="evenodd" fill="url(#SVGID_1_)" d="M13.889,16.63l-9.521-1.767
		c-2.432-0.45-3.472-2.225-1.182-4.154l9.036-7.613c1.777-1.497,4.438-2.636,7.5-2.109l10.747,1.85
		c2.727,0.47,3.753,2.127,1.284,4.34l-7.823,7.015C21.12,16.713,18.029,17.399,13.889,16.63z"/>
	<linearGradient id="SVGID_2_" gradientUnits="userSpaceOnUse" x1="16.8691" y1="4.1196" x2="18.2798" y2="14.157">
		<stop  offset="0" style="stop-color:#7A7A7A"/>
		<stop  offset="1" style="stop-color:#A6A6A6"/>
	</linearGradient>
	<path fill-rule="evenodd" clip-rule="evenodd" fill="url(#SVGID_2_)" d="M13.849,16.852l-9.521-1.766
		c-0.703-0.13-1.297-0.367-1.741-0.686C2.176,14.106,1.89,13.74,1.761,13.32l0,0c-0.129-0.422-0.097-0.889,0.13-1.381
		c0.208-0.45,0.583-0.923,1.15-1.401l9.037-7.614c0.982-0.828,2.229-1.548,3.66-1.951c1.221-0.344,2.579-0.457,4.022-0.208
		l10.747,1.851c0.785,0.134,1.439,0.367,1.92,0.681c0.438,0.286,0.738,0.643,0.873,1.06c0.135,0.419,0.101,0.89-0.132,1.4
		c-0.224,0.492-0.636,1.025-1.264,1.587l-7.823,7.016c-1.435,1.286-2.943,2.104-4.62,2.504
		C17.788,17.263,15.949,17.242,13.849,16.852L13.849,16.852z M4.409,14.643l9.521,1.767c2.039,0.378,3.816,0.399,5.427,0.016
		c1.604-0.382,3.049-1.167,4.424-2.4l7.823-7.016c0.579-0.518,0.956-1,1.155-1.438c0.184-0.402,0.214-0.762,0.113-1.074
		c-0.102-0.314-0.339-0.591-0.691-0.82c-0.431-0.282-1.026-0.491-1.749-0.615L19.684,1.209c-1.373-0.235-2.663-0.128-3.824,0.198
		c-1.367,0.385-2.557,1.072-3.493,1.862L3.33,10.882c-0.512,0.432-0.848,0.853-1.03,1.246c-0.178,0.385-0.206,0.743-0.108,1.06
		v0.001c0.098,0.319,0.326,0.605,0.658,0.845C3.242,14.315,3.775,14.524,4.409,14.643z"/>
	<linearGradient id="SVGID_3_" gradientUnits="userSpaceOnUse" x1="9.5137" y1="39.9438" x2="12.9011" y2="15.8411">
		<stop  offset="0" style="stop-color:#1E2F4F"/>
		<stop  offset="1" style="stop-color:#2E4776"/>
	</linearGradient>
	<path fill-rule="evenodd" clip-rule="evenodd" fill="url(#SVGID_3_)" d="M13.043,19.44l-8.736-1.715
		c-2.829-0.556-4.588,1.333-3.953,4.197L2.86,33.221c0.636,2.866,3.505,5.688,6.343,6.217l8.459,1.578
		c2.839,0.528,4.591-1.121,3.956-3.989L19.112,25.73C18.489,22.915,16.766,20.172,13.043,19.44z"/>
	<linearGradient id="SVGID_4_" gradientUnits="userSpaceOnUse" x1="8.1543" y1="44.0308" x2="13.1738" y2="18.2074">
		<stop  offset="0" style="stop-color:#0B1C3F"/>
		<stop  offset="1" style="stop-color:#1C325B"/>
	</linearGradient>
	<path fill-rule="evenodd" clip-rule="evenodd" fill="url(#SVGID_4_)" d="M13,19.663l-8.736-1.716
		c-0.627-0.123-1.195-0.121-1.69-0.012c-0.547,0.122-1.006,0.375-1.354,0.738c-0.349,0.362-0.59,0.835-0.701,1.396
		c-0.104,0.532-0.092,1.14,0.056,1.806L3.081,33.17c0.308,1.392,1.164,2.777,2.288,3.88c1.121,1.097,2.503,1.91,3.875,2.167
		l8.458,1.578c0.674,0.125,1.281,0.123,1.801,0.008c0.53-0.117,0.972-0.354,1.304-0.691c0.332-0.338,0.558-0.781,0.657-1.314
		c0.094-0.5,0.076-1.078-0.067-1.723l-2.505-11.296c-0.331-1.497-0.979-2.969-2.082-4.112C15.891,20.714,14.648,19.987,13,19.663
		L13,19.663z M4.351,17.503l8.735,1.716c1.747,0.342,3.067,1.118,4.048,2.135c1.167,1.21,1.851,2.758,2.197,4.325l2.505,11.299
		c0.157,0.706,0.175,1.343,0.07,1.9c-0.116,0.626-0.384,1.146-0.778,1.549c-0.394,0.399-0.911,0.677-1.529,0.813
		c-0.579,0.129-1.246,0.133-1.979-0.004l-8.458-1.576c-1.463-0.273-2.929-1.132-4.11-2.29c-1.182-1.159-2.084-2.624-2.412-4.103
		L0.135,21.971c-0.161-0.729-0.174-1.4-0.059-1.988c0.126-0.646,0.408-1.198,0.817-1.623c0.41-0.425,0.946-0.723,1.583-0.864
		C3.033,17.373,3.664,17.369,4.351,17.503z"/>
	<linearGradient id="SVGID_5_" gradientUnits="userSpaceOnUse" x1="40.0518" y1="34.729" x2="25.6002" y2="14.8382">
		<stop  offset="0" style="stop-color:#002D60"/>
		<stop  offset="1" style="stop-color:#005BAF"/>
	</linearGradient>
	<path fill-rule="evenodd" clip-rule="evenodd" fill="url(#SVGID_5_)" d="M25.599,16.925l8.223-7.68
		c2.872-2.683,5.271-1.458,5.973,1.92l2.299,11.06c0.596,2.873-1.09,6.283-3.445,8.43l-8.429,7.677
		c-2.807,2.56-5.002,1.475-5.694-1.643l-2.505-11.269C21.158,21.545,23.653,18.742,25.599,16.925z"/>
	<linearGradient id="SVGID_6_" gradientUnits="userSpaceOnUse" x1="39.6436" y1="34.1675" x2="23.5152" y2="11.9687">
		<stop  offset="0" style="stop-color:#002242"/>
		<stop  offset="1" style="stop-color:#00417F"/>
	</linearGradient>
	<path fill-rule="evenodd" clip-rule="evenodd" fill="url(#SVGID_6_)" d="M25.445,16.759l8.223-7.679
		c0.884-0.827,1.733-1.297,2.51-1.459c0.51-0.105,0.989-0.08,1.427,0.065c0.438,0.145,0.833,0.408,1.175,0.775
		c0.573,0.612,1,1.52,1.235,2.658l2.298,11.06c0.294,1.418,0.053,2.958-0.544,4.418c-0.648,1.587-1.716,3.082-2.969,4.222
		L30.371,38.5c-0.87,0.79-1.689,1.248-2.434,1.413c-0.501,0.11-0.967,0.091-1.392-0.049c-0.424-0.136-0.804-0.391-1.13-0.751
		c-0.508-0.555-0.888-1.364-1.111-2.376l-2.506-11.269c-0.443-1.999-0.023-3.72,0.759-5.174
		C23.332,18.854,24.459,17.681,25.445,16.759L25.445,16.759z M33.975,9.411l-8.222,7.679c-0.959,0.896-2.054,2.033-2.797,3.417
		c-0.737,1.37-1.133,2.989-0.717,4.863l2.506,11.271c0.207,0.931,0.55,1.67,1.005,2.17c0.273,0.298,0.588,0.512,0.937,0.625
		c0.349,0.114,0.736,0.13,1.155,0.037c0.668-0.148,1.417-0.571,2.227-1.309l8.429-7.679c1.207-1.1,2.235-2.537,2.857-4.059
		c0.564-1.381,0.794-2.832,0.519-4.156l-2.297-11.06c-0.219-1.056-0.607-1.89-1.125-2.443c-0.29-0.31-0.621-0.532-0.986-0.652
		c-0.364-0.12-0.765-0.141-1.193-0.052C35.572,8.208,34.797,8.643,33.975,9.411z"/>
	<path fill-rule="evenodd" clip-rule="evenodd" fill="#DCDCDC" d="M10.414,45.794l10.613-2.191
		c5.118-1.056,11.746,0.349,15.459,0.945c5.093,0.821,4.542,1.697,1.142,2.421L26.7,49.294c-5.047,1.073-11.832-0.786-16.162-1.316
		C7.025,47.548,7.438,46.408,10.414,45.794z"/>
	<g>
		
			<line fill-rule="evenodd" clip-rule="evenodd" fill="none" stroke="#231F20" stroke-width="0.216" stroke-miterlimit="22.9256" x1="32.029" y1="7.782" x2="32.029" y2="7.782"/>
	</g>
	<rect x="131.879" y="10.243" fill-rule="evenodd" clip-rule="evenodd" fill="#0E59A9" width="4.84" height="10.733"/>
	<polygon fill-rule="evenodd" clip-rule="evenodd" fill="#0E59A9" points="149.938,20.977 149.938,14.32 155.798,14.32 
		155.798,10.243 139.3,10.243 139.3,14.32 145.095,14.32 145.095,20.977 	"/>
	<path fill-rule="evenodd" clip-rule="evenodd" fill="#333333" d="M78.274,13.874c0.35-0.096,1.019-0.16,2.197-0.16
		c2.23,0,3.568,1.015,3.568,2.947c0,1.869-1.435,3.074-3.854,3.074h-1.911V13.874L78.274,13.874z M86.19,20.977
		c1.444-0.908,2.689-2.539,2.689-4.698c0-1.963-0.7-3.455-2.007-4.475c-1.528-1.242-3.758-1.719-6.942-1.719
		c-2.613,0-4.905,0.19-6.466,0.478v10.415H86.19z"/>
	<path fill-rule="evenodd" clip-rule="evenodd" fill="#333333" d="M59.77,13.938c0.35-0.096,1.019-0.16,2.006-0.16
		c2.452,0,3.791,1.179,3.791,3.154c0,2.166-1.593,3.471-4.172,3.471c-0.701,0-1.21-0.031-1.625-0.127V13.938L59.77,13.938z
		 M69.205,20.977c0.771-1.113,1.171-2.554,1.171-4.205c0-2.102-0.893-3.886-2.261-4.937c-1.434-1.178-3.6-1.751-6.594-1.751
		c-2.962,0-5.064,0.19-6.562,0.446v10.446H69.205z"/>
	<polygon fill-rule="evenodd" clip-rule="evenodd" fill="#333333" points="127.642,20.977 127.642,19.128 119.935,19.128 
		119.935,14.224 128.183,14.224 128.183,10.243 115.093,10.243 115.093,20.977 	"/>
	<path fill-rule="evenodd" clip-rule="evenodd" fill="#333333" d="M111.873,20.977c0.002-0.074,0.003-0.148,0.003-0.223
		c0-5.925-3.598-10.861-10.191-10.861c-6.255,0-10.379,4.731-10.445,11.084h5.095c0.01-3.998,1.887-7.229,5.223-7.229
		c3.344,0,5.161,3.313,5.161,7.165l-0.001,0.064H111.873z"/>
	<linearGradient id="SVGID_7_" gradientUnits="userSpaceOnUse" x1="134.2988" y1="31.7095" x2="134.2988" y2="20.9771">
		<stop  offset="0" style="stop-color:#1259A7"/>
		<stop  offset="1" style="stop-color:#0C427C"/>
	</linearGradient>
	<rect x="131.879" y="20.977" fill-rule="evenodd" clip-rule="evenodd" fill="url(#SVGID_7_)" width="4.84" height="10.733"/>
	<linearGradient id="SVGID_8_" gradientUnits="userSpaceOnUse" x1="147.5166" y1="31.7095" x2="147.5166" y2="20.9771">
		<stop  offset="0" style="stop-color:#1259A7"/>
		<stop  offset="1" style="stop-color:#0C427C"/>
	</linearGradient>
	<rect x="145.095" y="20.977" fill-rule="evenodd" clip-rule="evenodd" fill="url(#SVGID_8_)" width="4.844" height="10.733"/>
	<linearGradient id="SVGID_9_" gradientUnits="userSpaceOnUse" x1="81.5703" y1="31.7095" x2="81.5703" y2="20.9771">
		<stop  offset="0" style="stop-color:#333333"/>
		<stop  offset="1" style="stop-color:#000000"/>
	</linearGradient>
	<path fill-rule="evenodd" clip-rule="evenodd" fill="url(#SVGID_9_)" d="M73.465,31.709h4.81v-8.471h1.433
		c2.008,0.031,2.931,0.732,3.536,3.45c0.604,2.655,1.146,4.417,1.465,5.021h4.969c-0.414-0.833-1.051-3.646-1.721-6.104
		c-0.541-1.985-1.369-3.386-2.867-3.992v-0.095c0.369-0.135,0.74-0.315,1.102-0.542H73.465V31.709z"/>
	<linearGradient id="SVGID_10_" gradientUnits="userSpaceOnUse" x1="62.082" y1="31.7095" x2="62.082" y2="20.9771">
		<stop  offset="0" style="stop-color:#333333"/>
		<stop  offset="1" style="stop-color:#000000"/>
	</linearGradient>
	<path fill-rule="evenodd" clip-rule="evenodd" fill="url(#SVGID_10_)" d="M54.959,31.709h4.81v-7.708
		c0.445,0.096,1.019,0.128,1.656,0.128c2.866,0,5.351-0.733,7.007-2.262c0.289-0.267,0.546-0.565,0.772-0.892H54.959V31.709z"/>
	<linearGradient id="SVGID_11_" gradientUnits="userSpaceOnUse" x1="121.3672" y1="31.7095" x2="121.3672" y2="20.9771">
		<stop  offset="0" style="stop-color:#333333"/>
		<stop  offset="1" style="stop-color:#000000"/>
	</linearGradient>
	<polygon fill-rule="evenodd" clip-rule="evenodd" fill="url(#SVGID_11_)" points="115.093,31.709 119.935,31.709 119.935,23.078 
		127.642,23.078 127.642,20.977 115.093,20.977 	"/>
	<linearGradient id="SVGID_12_" gradientUnits="userSpaceOnUse" x1="101.5557" y1="32.0669" x2="101.5557" y2="20.9771">
		<stop  offset="0" style="stop-color:#333333"/>
		<stop  offset="1" style="stop-color:#000000"/>
	</linearGradient>
	<path fill-rule="evenodd" clip-rule="evenodd" fill="url(#SVGID_12_)" d="M101.365,32.067c6.208,0,10.419-4.153,10.508-11.09
		h-5.156c-0.02,4.173-1.896,7.231-5.16,7.231h-0.032c-3.248,0-5.19-3.154-5.19-7.2v-0.031h-5.095
		c-0.001,0.053-0.002,0.106-0.002,0.16c0,6.117,3.759,10.931,10.097,10.931H101.365z"/>
</g>
</svg>
