<svg width="784" height="471" viewBox="0 0 784 471" fill="none" xmlns="http://www.w3.org/2000/svg">
<circle cx="4" cy="403" r="4" fill="#C7D1D7"/>
<circle cx="24" cy="403" r="4" fill="#C7D1D7"/>
<circle cx="24" cy="419" r="4" fill="#C7D1D7"/>
<circle cx="44" cy="419" r="4" fill="#C7D1D7"/>
<circle cx="64" cy="419" r="4" fill="#C7D1D7"/>
<circle cx="84" cy="419" r="4" fill="#C7D1D7"/>
<circle cx="104" cy="435" r="4" fill="#C7D1D7"/>
<circle cx="84" cy="435" r="4" fill="#C7D1D7"/>
<circle cx="64" cy="435" r="4" fill="#C7D1D7"/>
<circle cx="44" cy="435" r="4" fill="#C7D1D7"/>
<circle cx="24" cy="435" r="4" fill="#C7D1D7"/>
<circle cx="4" cy="435" r="4" fill="#C7D1D7"/>
<circle cx="24" cy="451" r="4" fill="#C7D1D7"/>
<circle cx="44" cy="451" r="4" fill="#C7D1D7"/>
<circle cx="44" cy="467" r="4" fill="#C7D1D7"/>
<circle cx="64" cy="467" r="4" fill="#C7D1D7"/>
<circle cx="64" cy="451" r="4" fill="#C7D1D7"/>
<circle cx="84" cy="451" r="4" fill="#C7D1D7"/>
<circle cx="44" cy="403" r="4" fill="#C7D1D7"/>
<circle cx="64" cy="403" r="4" fill="#C7D1D7"/>
<circle cx="84" cy="403" r="4" fill="#C7D1D7"/>
<circle cx="104" cy="403" r="4" fill="#C7D1D7"/>
<circle cx="663.865" cy="34.8884" r="4" transform="rotate(-16.8712 663.865 34.8884)" fill="#C7D1D7"/>
<circle cx="683.004" cy="29.0839" r="4" transform="rotate(-16.8712 683.004 29.0839)" fill="#C7D1D7"/>
<circle cx="687.648" cy="44.3953" r="4" transform="rotate(-16.8712 687.648 44.3953)" fill="#C7D1D7"/>
<circle cx="706.787" cy="38.5909" r="4" transform="rotate(-16.8712 706.787 38.5909)" fill="#C7D1D7"/>
<circle cx="725.926" cy="32.7865" r="4" transform="rotate(-16.8712 725.926 32.7865)" fill="#C7D1D7"/>
<circle cx="745.065" cy="26.982" r="4" transform="rotate(-16.8712 745.065 26.982)" fill="#C7D1D7"/>
<circle cx="768.848" cy="36.4889" r="4" transform="rotate(-16.8712 768.848 36.4889)" fill="#C7D1D7"/>
<circle cx="749.709" cy="42.2934" r="4" transform="rotate(-16.8712 749.709 42.2934)" fill="#C7D1D7"/>
<circle cx="730.57" cy="48.0978" r="4" transform="rotate(-16.8712 730.57 48.0978)" fill="#C7D1D7"/>
<circle cx="711.43" cy="53.9022" r="4" transform="rotate(-16.8712 711.43 53.9022)" fill="#C7D1D7"/>
<circle cx="692.291" cy="59.7067" r="4" transform="rotate(-16.8712 692.291 59.7067)" fill="#C7D1D7"/>
<circle cx="673.152" cy="65.5111" r="4" transform="rotate(-16.8712 673.152 65.5111)" fill="#C7D1D7"/>
<circle cx="696.935" cy="75.018" r="4" transform="rotate(-16.8712 696.935 75.018)" fill="#C7D1D7"/>
<circle cx="716.074" cy="69.2136" r="4" transform="rotate(-16.8712 716.074 69.2136)" fill="#C7D1D7"/>
<circle cx="720.718" cy="84.5249" r="4" transform="rotate(-16.8712 720.718 84.5249)" fill="#C7D1D7"/>
<circle cx="739.857" cy="78.7205" r="4" transform="rotate(-16.8712 739.857 78.7205)" fill="#C7D1D7"/>
<circle cx="735.213" cy="63.4091" r="4" transform="rotate(-16.8712 735.213 63.4091)" fill="#C7D1D7"/>
<circle cx="754.352" cy="57.6047" r="4" transform="rotate(-16.8712 754.352 57.6047)" fill="#C7D1D7"/>
<circle cx="702.143" cy="23.2795" r="4" transform="rotate(-16.8712 702.143 23.2795)" fill="#C7D1D7"/>
<circle cx="721.283" cy="17.4751" r="4" transform="rotate(-16.8712 721.283 17.4751)" fill="#C7D1D7"/>
<circle cx="740.422" cy="11.6707" r="4" transform="rotate(-16.8712 740.422 11.6707)" fill="#C7D1D7"/>
<circle cx="759.561" cy="5.86623" r="4" transform="rotate(-16.8712 759.561 5.86623)" fill="#C7D1D7"/>
</svg>
