<svg width="1340" height="218" viewBox="0 0 1340 218" fill="none" xmlns="http://www.w3.org/2000/svg">
<path d="M841.049 39.5C841.049 39.5 840.05 31.5 847.049 27.5C854.049 23.5 860.549 33.5463 867.049 29.5C873.549 25.4537 871.049 17.1742 878.049 13.8371C885.049 10.5 889.62 17.6742 896.335 13.8371C903.049 10 899.549 1 899.549 1" stroke="#C7D1D7" stroke-width="2" stroke-linecap="round"/>
<path d="M1.04935 216.5C1.04935 216.5 0.0496063 208.5 7.0495 204.5C14.0494 200.5 20.5494 210.546 27.0494 206.5C33.5494 202.454 31.0494 194.174 38.0494 190.837C45.0494 187.5 49.6201 194.674 56.3348 190.837C63.0494 187 59.5494 178 59.5494 178" stroke="#C7D1D7" stroke-width="2" stroke-linecap="round"/>
<circle cx="1217.23" cy="55.5293" r="4" transform="rotate(-22.5211 1217.23 55.5293)" fill="#C7D1D7"/>
<circle cx="1235.7" cy="47.8689" r="4" transform="rotate(-22.5211 1235.7 47.8689)" fill="#C7D1D7"/>
<circle cx="1241.83" cy="62.6487" r="4" transform="rotate(-22.5211 1241.83 62.6487)" fill="#C7D1D7"/>
<circle cx="1260.3" cy="54.9882" r="4" transform="rotate(-22.5211 1260.3 54.9882)" fill="#C7D1D7"/>
<circle cx="1278.78" cy="47.3277" r="4" transform="rotate(-22.5211 1278.78 47.3277)" fill="#C7D1D7"/>
<circle cx="1297.25" cy="39.6673" r="4" transform="rotate(-22.5211 1297.25 39.6673)" fill="#C7D1D7"/>
<circle cx="1321.86" cy="46.7866" r="4" transform="rotate(-22.5211 1321.86 46.7866)" fill="#C7D1D7"/>
<circle cx="1303.38" cy="54.4471" r="4" transform="rotate(-22.5211 1303.38 54.4471)" fill="#C7D1D7"/>
<circle cx="1284.91" cy="62.1075" r="4" transform="rotate(-22.5211 1284.91 62.1075)" fill="#C7D1D7"/>
<circle cx="1266.43" cy="69.768" r="4" transform="rotate(-22.5211 1266.43 69.768)" fill="#C7D1D7"/>
<circle cx="1247.96" cy="77.4285" r="4" transform="rotate(-22.5211 1247.96 77.4285)" fill="#C7D1D7"/>
<circle cx="1229.48" cy="85.0889" r="4" transform="rotate(-22.5211 1229.48 85.0889)" fill="#C7D1D7"/>
<circle cx="1254.09" cy="92.2083" r="4" transform="rotate(-22.5211 1254.09 92.2083)" fill="#C7D1D7"/>
<circle cx="1272.56" cy="84.5478" r="4" transform="rotate(-22.5211 1272.56 84.5478)" fill="#C7D1D7"/>
<circle cx="1278.69" cy="99.3277" r="4" transform="rotate(-22.5211 1278.69 99.3277)" fill="#C7D1D7"/>
<circle cx="1297.16" cy="91.6672" r="4" transform="rotate(-22.5211 1297.16 91.6672)" fill="#C7D1D7"/>
<circle cx="1291.04" cy="76.8873" r="4" transform="rotate(-22.5211 1291.04 76.8873)" fill="#C7D1D7"/>
<circle cx="1309.51" cy="69.2269" r="4" transform="rotate(-22.5211 1309.51 69.2269)" fill="#C7D1D7"/>
<circle cx="1254.18" cy="40.2084" r="4" transform="rotate(-22.5211 1254.18 40.2084)" fill="#C7D1D7"/>
<circle cx="1272.65" cy="32.5479" r="4" transform="rotate(-22.5211 1272.65 32.5479)" fill="#C7D1D7"/>
<circle cx="1291.13" cy="24.8874" r="4" transform="rotate(-22.5211 1291.13 24.8874)" fill="#C7D1D7"/>
<circle cx="1309.6" cy="17.227" r="4" transform="rotate(-22.5211 1309.6 17.227)" fill="#C7D1D7"/>
</svg>
