<svg width="56" height="56" viewBox="0 0 56 56" fill="none" xmlns="http://www.w3.org/2000/svg">
<rect width="56" height="56" rx="28" fill="#67B560"/>
<path fill-rule="evenodd" clip-rule="evenodd" d="M28 12C19.1635 12 12 19.1635 12 28C12 36.8365 19.1635 44 28 44C36.8365 44 44 36.8365 44 28C44 19.1635 36.8365 12 28 12ZM28 34.4C28 36.1673 26.5673 37.6 24.8 37.6C23.0327 37.6 21.6 36.1673 21.6 34.4C21.6 32.6327 23.0327 31.2 24.8 31.2C23.0327 31.2 21.6 29.7673 21.6 28C21.6 26.2327 23.0327 24.8 24.8 24.8C23.0327 24.8 21.6 23.3673 21.6 21.6C21.6 19.8327 23.0327 18.4 24.8 18.4H28H31.2C32.9673 18.4 34.4 19.8327 34.4 21.6C34.4 23.3673 32.9673 24.8 31.2 24.8H28L28 28L28 31.2V34.4ZM28 28C28 29.7673 29.4327 31.2 31.2 31.2C32.9673 31.2 34.4 29.7673 34.4 28C34.4 26.2327 32.9673 24.8 31.2 24.8C29.4327 24.8 28 26.2327 28 28Z" fill="white"/>
</svg>
