<svg width="199" height="43" viewBox="0 0 199 43" fill="none" xmlns="http://www.w3.org/2000/svg">
<path d="M20.52 33V27H6.984V0.983997H0.168V33H20.52ZM35.3854 33.576C43.0654 33.576 47.6734 28.008 47.6734 21.384C47.6734 14.808 43.0654 9.24 35.3854 9.24C27.7534 9.24 23.1454 14.808 23.1454 21.384C23.1454 28.008 27.7534 33.576 35.3854 33.576ZM35.3854 28.152C31.5934 28.152 29.4814 25.032 29.4814 21.384C29.4814 17.784 31.5934 14.664 35.3854 14.664C39.1774 14.664 41.3374 17.784 41.3374 21.384C41.3374 25.032 39.1774 28.152 35.3854 28.152ZM61.6999 42.408C67.4119 42.408 74.2279 40.248 74.2279 31.416V9.816H68.0839V12.792C66.2119 10.44 63.7159 9.24 60.9319 9.24C55.0759 9.24 50.7079 13.464 50.7079 21.048C50.7079 28.776 55.1239 32.856 60.9319 32.856C63.7639 32.856 66.2599 31.512 68.0839 29.208V31.56C68.0839 36.12 64.6279 37.416 61.6999 37.416C58.7719 37.416 56.3239 36.6 54.4519 34.536L51.7159 38.952C54.6439 41.496 57.7159 42.408 61.6999 42.408ZM62.8519 27.432C59.3959 27.432 56.9959 25.032 56.9959 21.048C56.9959 17.064 59.3959 14.664 62.8519 14.664C64.8679 14.664 67.0759 15.768 68.0839 17.304V24.792C67.0759 26.28 64.8679 27.432 62.8519 27.432ZM91.026 33.576C98.706 33.576 103.314 28.008 103.314 21.384C103.314 14.808 98.706 9.24 91.026 9.24C83.394 9.24 78.786 14.808 78.786 21.384C78.786 28.008 83.394 33.576 91.026 33.576ZM91.026 28.152C87.234 28.152 85.122 25.032 85.122 21.384C85.122 17.784 87.234 14.664 91.026 14.664C94.818 14.664 96.978 17.784 96.978 21.384C96.978 25.032 94.818 28.152 91.026 28.152ZM115.613 33.576C118.157 33.576 119.789 32.904 120.701 32.088L119.405 27.48C119.069 27.816 118.205 28.152 117.293 28.152C115.949 28.152 115.181 27.048 115.181 25.608V15.144H119.885V9.816H115.181V3.48H109.037V9.816H105.197V15.144H109.037V27.24C109.037 31.368 111.341 33.576 115.613 33.576ZM123.239 42.072C124.007 42.264 125.543 42.408 126.263 42.408C130.247 42.312 133.319 41.16 135.047 36.792L145.943 9.816H139.367L133.319 25.944L127.271 9.816H120.743L130.151 33.336L129.287 35.304C128.711 36.552 127.655 36.984 126.071 36.984C125.495 36.984 124.679 36.84 124.151 36.6L123.239 42.072ZM161.913 33.576C167.865 33.576 172.185 29.112 172.185 21.384C172.185 13.656 167.865 9.24 161.913 9.24C159.081 9.24 156.537 10.488 154.761 12.744V9.816H148.665V41.832H154.761V30.024C156.633 32.424 159.177 33.576 161.913 33.576ZM159.993 28.152C158.025 28.152 155.769 26.952 154.761 25.512V17.304C155.769 15.816 158.025 14.664 159.993 14.664C163.497 14.664 165.849 17.4 165.849 21.384C165.849 25.416 163.497 28.152 159.993 28.152ZM187.545 33.576C191.145 33.576 194.793 32.472 197.097 30.36L194.409 26.424C192.921 27.864 190.185 28.728 188.217 28.728C184.281 28.728 181.929 26.28 181.545 23.352H198.777V22.008C198.777 14.424 194.073 9.24 187.161 9.24C180.105 9.24 175.161 14.664 175.161 21.384C175.161 28.824 180.489 33.576 187.545 33.576ZM192.873 19.224H181.449C181.737 16.92 183.369 14.088 187.161 14.088C191.193 14.088 192.729 17.016 192.873 19.224Z" fill="#333333"/>
</svg>
