<svg width="24" height="24" viewBox="0 0 24 24" fill="none" xmlns="http://www.w3.org/2000/svg">
<g clip-path="url(#clip0_1_2193)">
<path d="M18 16.5C18 19.54 15.535 22 12.5 22C9.465 22 7 19.54 7 16.5L7 6C7 3.79 8.79 2 11 2C13.21 2 15 3.79 15 6L15 14.5C15 15.88 13.88 17 12.5 17C11.12 17 10 15.88 10 14.5V7H11.5V14.5C11.5 15.05 11.945 15.5 12.5 15.5C13.055 15.5 13.5 15.05 13.5 14.5V6C13.5 4.62 12.38 3.5 11 3.5C9.62 3.5 8.5 4.62 8.5 6V16.5C8.5 18.71 10.29 20.5 12.5 20.5C14.71 20.5 16.5 18.71 16.5 16.5V7H18V16.5Z" fill="#333333"/>
</g>
<defs>
<clipPath id="clip0_1_2193">
<rect width="24" height="24" fill="white" transform="translate(0 24) rotate(-90)"/>
</clipPath>
</defs>
</svg>
