<svg width="32" height="32" viewBox="0 0 32 32" fill="none" xmlns="http://www.w3.org/2000/svg">
<path fill-rule="evenodd" clip-rule="evenodd" d="M0 16C0 24.8366 7.16344 32 16 32C24.8366 32 32 24.8366 32 16C32 7.16344 24.8366 0 16 0C7.16344 0 0 7.16344 0 16ZM26.0414 15.3877C26.0393 20.6322 21.773 24.8995 16.5274 24.9017H16.5234C14.9311 24.9011 13.3665 24.5016 11.9769 23.7436L6.93333 25.0667L8.28308 20.1366C7.45049 18.6937 7.01239 17.057 7.0131 15.3802C7.01519 10.1345 11.2832 5.86667 16.5273 5.86667C19.0724 5.86777 21.4612 6.85858 23.2575 8.65694C25.0537 10.4552 26.0424 12.8456 26.0414 15.3877Z" fill="white"/>
<path fill-rule="evenodd" clip-rule="evenodd" d="M9.21759 22.8064L12.2105 22.0213L12.4993 22.1926C13.7134 22.9131 15.1051 23.2944 16.5241 23.2949H16.5273C20.8858 23.2949 24.4332 19.7474 24.435 15.3871C24.4358 13.2741 23.614 11.2874 22.121 9.79267C20.6281 8.29794 18.6426 7.47437 16.5304 7.47363C12.1686 7.47363 8.62112 11.0207 8.61939 15.3807C8.61877 16.8749 9.03685 18.3301 9.82843 19.5891L10.0164 19.8883L9.21759 22.8064ZM20.9949 17.436C21.1607 17.5162 21.2726 17.5703 21.3205 17.6501C21.3799 17.7492 21.3799 18.2252 21.1819 18.7806C20.9837 19.3359 20.034 19.8427 19.5772 19.9109C19.1677 19.9721 18.6494 19.9977 18.0799 19.8167C17.7346 19.7071 17.2918 19.5609 16.7247 19.3159C14.496 18.3536 12.99 16.1936 12.7053 15.7854C12.6854 15.7568 12.6714 15.7368 12.6636 15.7264L12.6617 15.7238C12.5359 15.556 11.6929 14.4312 11.6929 13.2672C11.6929 12.1722 12.2308 11.5982 12.4784 11.334C12.4954 11.3159 12.511 11.2993 12.525 11.284C12.7429 11.046 13.0004 10.9865 13.1589 10.9865C13.3174 10.9865 13.476 10.988 13.6145 10.9949C13.6316 10.9958 13.6494 10.9957 13.6678 10.9956C13.8063 10.9948 13.979 10.9938 14.1494 11.403C14.2149 11.5605 14.3108 11.794 14.412 12.0403C14.6166 12.5383 14.8426 13.0885 14.8823 13.1681C14.9418 13.2871 14.9814 13.4259 14.9022 13.5846C14.8903 13.6084 14.8793 13.6309 14.8687 13.6524C14.8092 13.7739 14.7654 13.8632 14.6644 13.9812C14.6247 14.0276 14.5837 14.0776 14.5426 14.1276C14.4608 14.2272 14.379 14.3267 14.3078 14.3977C14.1888 14.5162 14.0649 14.6448 14.2036 14.8828C14.3423 15.1208 14.8194 15.8993 15.5261 16.5297C16.2858 17.2073 16.946 17.4937 17.2807 17.6388C17.3461 17.6672 17.399 17.6901 17.4378 17.7096C17.6755 17.8286 17.8142 17.8087 17.9528 17.6501C18.0915 17.4914 18.5471 16.9559 18.7056 16.718C18.864 16.4801 19.0226 16.5197 19.2404 16.599C19.4584 16.6784 20.6271 17.2534 20.8649 17.3724C20.9113 17.3956 20.9547 17.4166 20.9949 17.436Z" fill="white"/>
</svg>
